<?xml version="1.0" encoding="UTF-8" ?>
<svg xmlns="http://www.w3.org/2000/svg" xmlns:xlink="http://www.w3.org/1999/xlink" height="350" width="350">
  <g id="qrcode:https://r-pkgs.org">
    <rect x="0" y="0" width="350px" height="350px" style="fill:white;"/>
    <rect x="33.87" y="33.87" width="11.29" height="11.29" stroke="black" stroke-width="0.2" stroke-linecap="butt" fill="black"/>
    <rect x="33.87" y="45.16" width="11.29" height="11.29" stroke="black" stroke-width="0.2" stroke-linecap="butt" fill="black"/>
    <rect x="33.87" y="56.45" width="11.29" height="11.29" stroke="black" stroke-width="0.2" stroke-linecap="butt" fill="black"/>
    <rect x="33.87" y="67.74" width="11.29" height="11.29" stroke="black" stroke-width="0.2" stroke-linecap="butt" fill="black"/>
    <rect x="33.87" y="79.03" width="11.29" height="11.29" stroke="black" stroke-width="0.2" stroke-linecap="butt" fill="black"/>
    <rect x="33.87" y="90.32" width="11.29" height="11.29" stroke="black" stroke-width="0.2" stroke-linecap="butt" fill="black"/>
    <rect x="33.87" y="101.61" width="11.29" height="11.29" stroke="black" stroke-width="0.2" stroke-linecap="butt" fill="black"/>
    <rect x="33.87" y="124.19" width="11.29" height="11.29" stroke="black" stroke-width="0.2" stroke-linecap="butt" fill="black"/>
    <rect x="33.87" y="158.06" width="11.29" height="11.29" stroke="black" stroke-width="0.2" stroke-linecap="butt" fill="black"/>
    <rect x="33.87" y="169.35" width="11.29" height="11.29" stroke="black" stroke-width="0.2" stroke-linecap="butt" fill="black"/>
    <rect x="33.87" y="180.65" width="11.29" height="11.29" stroke="black" stroke-width="0.2" stroke-linecap="butt" fill="black"/>
    <rect x="33.87" y="191.94" width="11.29" height="11.29" stroke="black" stroke-width="0.2" stroke-linecap="butt" fill="black"/>
    <rect x="33.87" y="203.23" width="11.29" height="11.29" stroke="black" stroke-width="0.2" stroke-linecap="butt" fill="black"/>
    <rect x="33.87" y="214.52" width="11.29" height="11.29" stroke="black" stroke-width="0.2" stroke-linecap="butt" fill="black"/>
    <rect x="33.87" y="237.10" width="11.29" height="11.29" stroke="black" stroke-width="0.2" stroke-linecap="butt" fill="black"/>
    <rect x="33.87" y="248.39" width="11.29" height="11.29" stroke="black" stroke-width="0.2" stroke-linecap="butt" fill="black"/>
    <rect x="33.87" y="259.68" width="11.29" height="11.29" stroke="black" stroke-width="0.2" stroke-linecap="butt" fill="black"/>
    <rect x="33.87" y="270.97" width="11.29" height="11.29" stroke="black" stroke-width="0.2" stroke-linecap="butt" fill="black"/>
    <rect x="33.87" y="282.26" width="11.29" height="11.29" stroke="black" stroke-width="0.2" stroke-linecap="butt" fill="black"/>
    <rect x="33.87" y="293.55" width="11.29" height="11.29" stroke="black" stroke-width="0.2" stroke-linecap="butt" fill="black"/>
    <rect x="33.87" y="304.84" width="11.29" height="11.29" stroke="black" stroke-width="0.2" stroke-linecap="butt" fill="black"/>
    <rect x="45.16" y="33.87" width="11.29" height="11.29" stroke="black" stroke-width="0.2" stroke-linecap="butt" fill="black"/>
    <rect x="45.16" y="101.61" width="11.29" height="11.29" stroke="black" stroke-width="0.2" stroke-linecap="butt" fill="black"/>
    <rect x="45.16" y="180.65" width="11.29" height="11.29" stroke="black" stroke-width="0.2" stroke-linecap="butt" fill="black"/>
    <rect x="45.16" y="237.10" width="11.29" height="11.29" stroke="black" stroke-width="0.2" stroke-linecap="butt" fill="black"/>
    <rect x="45.16" y="304.84" width="11.29" height="11.29" stroke="black" stroke-width="0.2" stroke-linecap="butt" fill="black"/>
    <rect x="56.45" y="33.87" width="11.29" height="11.29" stroke="black" stroke-width="0.2" stroke-linecap="butt" fill="black"/>
    <rect x="56.45" y="56.45" width="11.29" height="11.29" stroke="black" stroke-width="0.2" stroke-linecap="butt" fill="black"/>
    <rect x="56.45" y="67.74" width="11.29" height="11.29" stroke="black" stroke-width="0.2" stroke-linecap="butt" fill="black"/>
    <rect x="56.45" y="79.03" width="11.29" height="11.29" stroke="black" stroke-width="0.2" stroke-linecap="butt" fill="black"/>
    <rect x="56.45" y="101.61" width="11.29" height="11.29" stroke="black" stroke-width="0.2" stroke-linecap="butt" fill="black"/>
    <rect x="56.45" y="124.19" width="11.29" height="11.29" stroke="black" stroke-width="0.2" stroke-linecap="butt" fill="black"/>
    <rect x="56.45" y="135.48" width="11.29" height="11.29" stroke="black" stroke-width="0.2" stroke-linecap="butt" fill="black"/>
    <rect x="56.45" y="158.06" width="11.29" height="11.29" stroke="black" stroke-width="0.2" stroke-linecap="butt" fill="black"/>
    <rect x="56.45" y="169.35" width="11.29" height="11.29" stroke="black" stroke-width="0.2" stroke-linecap="butt" fill="black"/>
    <rect x="56.45" y="180.65" width="11.29" height="11.29" stroke="black" stroke-width="0.2" stroke-linecap="butt" fill="black"/>
    <rect x="56.45" y="203.23" width="11.29" height="11.29" stroke="black" stroke-width="0.2" stroke-linecap="butt" fill="black"/>
    <rect x="56.45" y="237.10" width="11.29" height="11.29" stroke="black" stroke-width="0.2" stroke-linecap="butt" fill="black"/>
    <rect x="56.45" y="259.68" width="11.29" height="11.29" stroke="black" stroke-width="0.2" stroke-linecap="butt" fill="black"/>
    <rect x="56.45" y="270.97" width="11.29" height="11.29" stroke="black" stroke-width="0.2" stroke-linecap="butt" fill="black"/>
    <rect x="56.45" y="282.26" width="11.29" height="11.29" stroke="black" stroke-width="0.2" stroke-linecap="butt" fill="black"/>
    <rect x="56.45" y="304.84" width="11.29" height="11.29" stroke="black" stroke-width="0.2" stroke-linecap="butt" fill="black"/>
    <rect x="67.74" y="33.87" width="11.29" height="11.29" stroke="black" stroke-width="0.2" stroke-linecap="butt" fill="black"/>
    <rect x="67.74" y="56.45" width="11.29" height="11.29" stroke="black" stroke-width="0.2" stroke-linecap="butt" fill="black"/>
    <rect x="67.74" y="67.74" width="11.29" height="11.29" stroke="black" stroke-width="0.2" stroke-linecap="butt" fill="black"/>
    <rect x="67.74" y="79.03" width="11.29" height="11.29" stroke="black" stroke-width="0.2" stroke-linecap="butt" fill="black"/>
    <rect x="67.74" y="101.61" width="11.29" height="11.29" stroke="black" stroke-width="0.2" stroke-linecap="butt" fill="black"/>
    <rect x="67.74" y="124.19" width="11.29" height="11.29" stroke="black" stroke-width="0.2" stroke-linecap="butt" fill="black"/>
    <rect x="67.74" y="135.48" width="11.29" height="11.29" stroke="black" stroke-width="0.2" stroke-linecap="butt" fill="black"/>
    <rect x="67.74" y="146.77" width="11.29" height="11.29" stroke="black" stroke-width="0.2" stroke-linecap="butt" fill="black"/>
    <rect x="67.74" y="180.65" width="11.29" height="11.29" stroke="black" stroke-width="0.2" stroke-linecap="butt" fill="black"/>
    <rect x="67.74" y="237.10" width="11.29" height="11.29" stroke="black" stroke-width="0.2" stroke-linecap="butt" fill="black"/>
    <rect x="67.74" y="259.68" width="11.29" height="11.29" stroke="black" stroke-width="0.2" stroke-linecap="butt" fill="black"/>
    <rect x="67.74" y="270.97" width="11.29" height="11.29" stroke="black" stroke-width="0.2" stroke-linecap="butt" fill="black"/>
    <rect x="67.74" y="282.26" width="11.29" height="11.29" stroke="black" stroke-width="0.2" stroke-linecap="butt" fill="black"/>
    <rect x="67.74" y="304.84" width="11.29" height="11.29" stroke="black" stroke-width="0.2" stroke-linecap="butt" fill="black"/>
    <rect x="79.03" y="33.87" width="11.29" height="11.29" stroke="black" stroke-width="0.2" stroke-linecap="butt" fill="black"/>
    <rect x="79.03" y="56.45" width="11.29" height="11.29" stroke="black" stroke-width="0.2" stroke-linecap="butt" fill="black"/>
    <rect x="79.03" y="67.74" width="11.29" height="11.29" stroke="black" stroke-width="0.2" stroke-linecap="butt" fill="black"/>
    <rect x="79.03" y="79.03" width="11.29" height="11.29" stroke="black" stroke-width="0.2" stroke-linecap="butt" fill="black"/>
    <rect x="79.03" y="101.61" width="11.29" height="11.29" stroke="black" stroke-width="0.2" stroke-linecap="butt" fill="black"/>
    <rect x="79.03" y="124.19" width="11.29" height="11.29" stroke="black" stroke-width="0.2" stroke-linecap="butt" fill="black"/>
    <rect x="79.03" y="158.06" width="11.29" height="11.29" stroke="black" stroke-width="0.2" stroke-linecap="butt" fill="black"/>
    <rect x="79.03" y="180.65" width="11.29" height="11.29" stroke="black" stroke-width="0.2" stroke-linecap="butt" fill="black"/>
    <rect x="79.03" y="214.52" width="11.29" height="11.29" stroke="black" stroke-width="0.2" stroke-linecap="butt" fill="black"/>
    <rect x="79.03" y="237.10" width="11.29" height="11.29" stroke="black" stroke-width="0.2" stroke-linecap="butt" fill="black"/>
    <rect x="79.03" y="259.68" width="11.29" height="11.29" stroke="black" stroke-width="0.2" stroke-linecap="butt" fill="black"/>
    <rect x="79.03" y="270.97" width="11.29" height="11.29" stroke="black" stroke-width="0.2" stroke-linecap="butt" fill="black"/>
    <rect x="79.03" y="282.26" width="11.29" height="11.29" stroke="black" stroke-width="0.2" stroke-linecap="butt" fill="black"/>
    <rect x="79.03" y="304.84" width="11.29" height="11.29" stroke="black" stroke-width="0.2" stroke-linecap="butt" fill="black"/>
    <rect x="90.32" y="33.87" width="11.29" height="11.29" stroke="black" stroke-width="0.2" stroke-linecap="butt" fill="black"/>
    <rect x="90.32" y="101.61" width="11.29" height="11.29" stroke="black" stroke-width="0.2" stroke-linecap="butt" fill="black"/>
    <rect x="90.32" y="124.19" width="11.29" height="11.29" stroke="black" stroke-width="0.2" stroke-linecap="butt" fill="black"/>
    <rect x="90.32" y="135.48" width="11.29" height="11.29" stroke="black" stroke-width="0.2" stroke-linecap="butt" fill="black"/>
    <rect x="90.32" y="191.94" width="11.29" height="11.29" stroke="black" stroke-width="0.2" stroke-linecap="butt" fill="black"/>
    <rect x="90.32" y="214.52" width="11.29" height="11.29" stroke="black" stroke-width="0.2" stroke-linecap="butt" fill="black"/>
    <rect x="90.32" y="237.10" width="11.29" height="11.29" stroke="black" stroke-width="0.2" stroke-linecap="butt" fill="black"/>
    <rect x="90.32" y="304.84" width="11.29" height="11.29" stroke="black" stroke-width="0.2" stroke-linecap="butt" fill="black"/>
    <rect x="101.61" y="33.87" width="11.29" height="11.29" stroke="black" stroke-width="0.2" stroke-linecap="butt" fill="black"/>
    <rect x="101.61" y="45.16" width="11.29" height="11.29" stroke="black" stroke-width="0.2" stroke-linecap="butt" fill="black"/>
    <rect x="101.61" y="56.45" width="11.29" height="11.29" stroke="black" stroke-width="0.2" stroke-linecap="butt" fill="black"/>
    <rect x="101.61" y="67.74" width="11.29" height="11.29" stroke="black" stroke-width="0.2" stroke-linecap="butt" fill="black"/>
    <rect x="101.61" y="79.03" width="11.29" height="11.29" stroke="black" stroke-width="0.2" stroke-linecap="butt" fill="black"/>
    <rect x="101.61" y="90.32" width="11.29" height="11.29" stroke="black" stroke-width="0.2" stroke-linecap="butt" fill="black"/>
    <rect x="101.61" y="101.61" width="11.29" height="11.29" stroke="black" stroke-width="0.2" stroke-linecap="butt" fill="black"/>
    <rect x="101.61" y="124.19" width="11.29" height="11.29" stroke="black" stroke-width="0.2" stroke-linecap="butt" fill="black"/>
    <rect x="101.61" y="146.77" width="11.29" height="11.29" stroke="black" stroke-width="0.2" stroke-linecap="butt" fill="black"/>
    <rect x="101.61" y="169.35" width="11.29" height="11.29" stroke="black" stroke-width="0.2" stroke-linecap="butt" fill="black"/>
    <rect x="101.61" y="191.94" width="11.29" height="11.29" stroke="black" stroke-width="0.2" stroke-linecap="butt" fill="black"/>
    <rect x="101.61" y="214.52" width="11.29" height="11.29" stroke="black" stroke-width="0.2" stroke-linecap="butt" fill="black"/>
    <rect x="101.61" y="237.10" width="11.29" height="11.29" stroke="black" stroke-width="0.2" stroke-linecap="butt" fill="black"/>
    <rect x="101.61" y="248.39" width="11.29" height="11.29" stroke="black" stroke-width="0.2" stroke-linecap="butt" fill="black"/>
    <rect x="101.61" y="259.68" width="11.29" height="11.29" stroke="black" stroke-width="0.2" stroke-linecap="butt" fill="black"/>
    <rect x="101.61" y="270.97" width="11.29" height="11.29" stroke="black" stroke-width="0.2" stroke-linecap="butt" fill="black"/>
    <rect x="101.61" y="282.26" width="11.29" height="11.29" stroke="black" stroke-width="0.2" stroke-linecap="butt" fill="black"/>
    <rect x="101.61" y="293.55" width="11.29" height="11.29" stroke="black" stroke-width="0.2" stroke-linecap="butt" fill="black"/>
    <rect x="101.61" y="304.84" width="11.29" height="11.29" stroke="black" stroke-width="0.2" stroke-linecap="butt" fill="black"/>
    <rect x="112.90" y="169.35" width="11.29" height="11.29" stroke="black" stroke-width="0.2" stroke-linecap="butt" fill="black"/>
    <rect x="112.90" y="203.23" width="11.29" height="11.29" stroke="black" stroke-width="0.2" stroke-linecap="butt" fill="black"/>
    <rect x="112.90" y="214.52" width="11.29" height="11.29" stroke="black" stroke-width="0.2" stroke-linecap="butt" fill="black"/>
    <rect x="124.19" y="56.45" width="11.29" height="11.29" stroke="black" stroke-width="0.2" stroke-linecap="butt" fill="black"/>
    <rect x="124.19" y="67.74" width="11.29" height="11.29" stroke="black" stroke-width="0.2" stroke-linecap="butt" fill="black"/>
    <rect x="124.19" y="79.03" width="11.29" height="11.29" stroke="black" stroke-width="0.2" stroke-linecap="butt" fill="black"/>
    <rect x="124.19" y="90.32" width="11.29" height="11.29" stroke="black" stroke-width="0.2" stroke-linecap="butt" fill="black"/>
    <rect x="124.19" y="101.61" width="11.29" height="11.29" stroke="black" stroke-width="0.2" stroke-linecap="butt" fill="black"/>
    <rect x="124.19" y="112.90" width="11.29" height="11.29" stroke="black" stroke-width="0.2" stroke-linecap="butt" fill="black"/>
    <rect x="124.19" y="135.48" width="11.29" height="11.29" stroke="black" stroke-width="0.2" stroke-linecap="butt" fill="black"/>
    <rect x="124.19" y="158.06" width="11.29" height="11.29" stroke="black" stroke-width="0.2" stroke-linecap="butt" fill="black"/>
    <rect x="124.19" y="169.35" width="11.29" height="11.29" stroke="black" stroke-width="0.2" stroke-linecap="butt" fill="black"/>
    <rect x="124.19" y="191.94" width="11.29" height="11.29" stroke="black" stroke-width="0.2" stroke-linecap="butt" fill="black"/>
    <rect x="124.19" y="225.81" width="11.29" height="11.29" stroke="black" stroke-width="0.2" stroke-linecap="butt" fill="black"/>
    <rect x="124.19" y="248.39" width="11.29" height="11.29" stroke="black" stroke-width="0.2" stroke-linecap="butt" fill="black"/>
    <rect x="124.19" y="259.68" width="11.29" height="11.29" stroke="black" stroke-width="0.2" stroke-linecap="butt" fill="black"/>
    <rect x="124.19" y="270.97" width="11.29" height="11.29" stroke="black" stroke-width="0.2" stroke-linecap="butt" fill="black"/>
    <rect x="124.19" y="282.26" width="11.29" height="11.29" stroke="black" stroke-width="0.2" stroke-linecap="butt" fill="black"/>
    <rect x="124.19" y="304.84" width="11.29" height="11.29" stroke="black" stroke-width="0.2" stroke-linecap="butt" fill="black"/>
    <rect x="135.48" y="33.87" width="11.29" height="11.29" stroke="black" stroke-width="0.2" stroke-linecap="butt" fill="black"/>
    <rect x="135.48" y="45.16" width="11.29" height="11.29" stroke="black" stroke-width="0.2" stroke-linecap="butt" fill="black"/>
    <rect x="135.48" y="56.45" width="11.29" height="11.29" stroke="black" stroke-width="0.2" stroke-linecap="butt" fill="black"/>
    <rect x="135.48" y="67.74" width="11.29" height="11.29" stroke="black" stroke-width="0.2" stroke-linecap="butt" fill="black"/>
    <rect x="135.48" y="79.03" width="11.29" height="11.29" stroke="black" stroke-width="0.2" stroke-linecap="butt" fill="black"/>
    <rect x="135.48" y="90.32" width="11.29" height="11.29" stroke="black" stroke-width="0.2" stroke-linecap="butt" fill="black"/>
    <rect x="135.48" y="135.48" width="11.29" height="11.29" stroke="black" stroke-width="0.2" stroke-linecap="butt" fill="black"/>
    <rect x="135.48" y="169.35" width="11.29" height="11.29" stroke="black" stroke-width="0.2" stroke-linecap="butt" fill="black"/>
    <rect x="135.48" y="180.65" width="11.29" height="11.29" stroke="black" stroke-width="0.2" stroke-linecap="butt" fill="black"/>
    <rect x="135.48" y="191.94" width="11.29" height="11.29" stroke="black" stroke-width="0.2" stroke-linecap="butt" fill="black"/>
    <rect x="135.48" y="225.81" width="11.29" height="11.29" stroke="black" stroke-width="0.2" stroke-linecap="butt" fill="black"/>
    <rect x="135.48" y="237.10" width="11.29" height="11.29" stroke="black" stroke-width="0.2" stroke-linecap="butt" fill="black"/>
    <rect x="135.48" y="248.39" width="11.29" height="11.29" stroke="black" stroke-width="0.2" stroke-linecap="butt" fill="black"/>
    <rect x="135.48" y="259.68" width="11.29" height="11.29" stroke="black" stroke-width="0.2" stroke-linecap="butt" fill="black"/>
    <rect x="135.48" y="282.26" width="11.29" height="11.29" stroke="black" stroke-width="0.2" stroke-linecap="butt" fill="black"/>
    <rect x="135.48" y="293.55" width="11.29" height="11.29" stroke="black" stroke-width="0.2" stroke-linecap="butt" fill="black"/>
    <rect x="146.77" y="90.32" width="11.29" height="11.29" stroke="black" stroke-width="0.2" stroke-linecap="butt" fill="black"/>
    <rect x="146.77" y="101.61" width="11.29" height="11.29" stroke="black" stroke-width="0.2" stroke-linecap="butt" fill="black"/>
    <rect x="146.77" y="124.19" width="11.29" height="11.29" stroke="black" stroke-width="0.2" stroke-linecap="butt" fill="black"/>
    <rect x="146.77" y="169.35" width="11.29" height="11.29" stroke="black" stroke-width="0.2" stroke-linecap="butt" fill="black"/>
    <rect x="146.77" y="191.94" width="11.29" height="11.29" stroke="black" stroke-width="0.2" stroke-linecap="butt" fill="black"/>
    <rect x="146.77" y="225.81" width="11.29" height="11.29" stroke="black" stroke-width="0.2" stroke-linecap="butt" fill="black"/>
    <rect x="146.77" y="237.10" width="11.29" height="11.29" stroke="black" stroke-width="0.2" stroke-linecap="butt" fill="black"/>
    <rect x="146.77" y="259.68" width="11.29" height="11.29" stroke="black" stroke-width="0.2" stroke-linecap="butt" fill="black"/>
    <rect x="146.77" y="270.97" width="11.29" height="11.29" stroke="black" stroke-width="0.2" stroke-linecap="butt" fill="black"/>
    <rect x="146.77" y="282.26" width="11.29" height="11.29" stroke="black" stroke-width="0.2" stroke-linecap="butt" fill="black"/>
    <rect x="146.77" y="304.84" width="11.29" height="11.29" stroke="black" stroke-width="0.2" stroke-linecap="butt" fill="black"/>
    <rect x="158.06" y="79.03" width="11.29" height="11.29" stroke="black" stroke-width="0.2" stroke-linecap="butt" fill="black"/>
    <rect x="158.06" y="124.19" width="11.29" height="11.29" stroke="black" stroke-width="0.2" stroke-linecap="butt" fill="black"/>
    <rect x="158.06" y="135.48" width="11.29" height="11.29" stroke="black" stroke-width="0.2" stroke-linecap="butt" fill="black"/>
    <rect x="158.06" y="169.35" width="11.29" height="11.29" stroke="black" stroke-width="0.2" stroke-linecap="butt" fill="black"/>
    <rect x="158.06" y="237.10" width="11.29" height="11.29" stroke="black" stroke-width="0.2" stroke-linecap="butt" fill="black"/>
    <rect x="158.06" y="248.39" width="11.29" height="11.29" stroke="black" stroke-width="0.2" stroke-linecap="butt" fill="black"/>
    <rect x="158.06" y="259.68" width="11.29" height="11.29" stroke="black" stroke-width="0.2" stroke-linecap="butt" fill="black"/>
    <rect x="169.35" y="33.87" width="11.29" height="11.29" stroke="black" stroke-width="0.2" stroke-linecap="butt" fill="black"/>
    <rect x="169.35" y="67.74" width="11.29" height="11.29" stroke="black" stroke-width="0.2" stroke-linecap="butt" fill="black"/>
    <rect x="169.35" y="79.03" width="11.29" height="11.29" stroke="black" stroke-width="0.2" stroke-linecap="butt" fill="black"/>
    <rect x="169.35" y="101.61" width="11.29" height="11.29" stroke="black" stroke-width="0.2" stroke-linecap="butt" fill="black"/>
    <rect x="169.35" y="112.90" width="11.29" height="11.29" stroke="black" stroke-width="0.2" stroke-linecap="butt" fill="black"/>
    <rect x="169.35" y="180.65" width="11.29" height="11.29" stroke="black" stroke-width="0.2" stroke-linecap="butt" fill="black"/>
    <rect x="169.35" y="203.23" width="11.29" height="11.29" stroke="black" stroke-width="0.2" stroke-linecap="butt" fill="black"/>
    <rect x="169.35" y="214.52" width="11.29" height="11.29" stroke="black" stroke-width="0.2" stroke-linecap="butt" fill="black"/>
    <rect x="169.35" y="237.10" width="11.29" height="11.29" stroke="black" stroke-width="0.2" stroke-linecap="butt" fill="black"/>
    <rect x="169.35" y="270.97" width="11.29" height="11.29" stroke="black" stroke-width="0.2" stroke-linecap="butt" fill="black"/>
    <rect x="169.35" y="293.55" width="11.29" height="11.29" stroke="black" stroke-width="0.2" stroke-linecap="butt" fill="black"/>
    <rect x="169.35" y="304.84" width="11.29" height="11.29" stroke="black" stroke-width="0.2" stroke-linecap="butt" fill="black"/>
    <rect x="180.65" y="45.16" width="11.29" height="11.29" stroke="black" stroke-width="0.2" stroke-linecap="butt" fill="black"/>
    <rect x="180.65" y="79.03" width="11.29" height="11.29" stroke="black" stroke-width="0.2" stroke-linecap="butt" fill="black"/>
    <rect x="180.65" y="90.32" width="11.29" height="11.29" stroke="black" stroke-width="0.2" stroke-linecap="butt" fill="black"/>
    <rect x="180.65" y="112.90" width="11.29" height="11.29" stroke="black" stroke-width="0.2" stroke-linecap="butt" fill="black"/>
    <rect x="180.65" y="180.65" width="11.29" height="11.29" stroke="black" stroke-width="0.2" stroke-linecap="butt" fill="black"/>
    <rect x="180.65" y="191.94" width="11.29" height="11.29" stroke="black" stroke-width="0.2" stroke-linecap="butt" fill="black"/>
    <rect x="180.65" y="203.23" width="11.29" height="11.29" stroke="black" stroke-width="0.2" stroke-linecap="butt" fill="black"/>
    <rect x="180.65" y="270.97" width="11.29" height="11.29" stroke="black" stroke-width="0.2" stroke-linecap="butt" fill="black"/>
    <rect x="180.65" y="282.26" width="11.29" height="11.29" stroke="black" stroke-width="0.2" stroke-linecap="butt" fill="black"/>
    <rect x="180.65" y="293.55" width="11.29" height="11.29" stroke="black" stroke-width="0.2" stroke-linecap="butt" fill="black"/>
    <rect x="191.94" y="45.16" width="11.29" height="11.29" stroke="black" stroke-width="0.2" stroke-linecap="butt" fill="black"/>
    <rect x="191.94" y="56.45" width="11.29" height="11.29" stroke="black" stroke-width="0.2" stroke-linecap="butt" fill="black"/>
    <rect x="191.94" y="90.32" width="11.29" height="11.29" stroke="black" stroke-width="0.2" stroke-linecap="butt" fill="black"/>
    <rect x="191.94" y="101.61" width="11.29" height="11.29" stroke="black" stroke-width="0.2" stroke-linecap="butt" fill="black"/>
    <rect x="191.94" y="124.19" width="11.29" height="11.29" stroke="black" stroke-width="0.2" stroke-linecap="butt" fill="black"/>
    <rect x="191.94" y="158.06" width="11.29" height="11.29" stroke="black" stroke-width="0.2" stroke-linecap="butt" fill="black"/>
    <rect x="191.94" y="180.65" width="11.29" height="11.29" stroke="black" stroke-width="0.2" stroke-linecap="butt" fill="black"/>
    <rect x="191.94" y="191.94" width="11.29" height="11.29" stroke="black" stroke-width="0.2" stroke-linecap="butt" fill="black"/>
    <rect x="191.94" y="214.52" width="11.29" height="11.29" stroke="black" stroke-width="0.2" stroke-linecap="butt" fill="black"/>
    <rect x="191.94" y="248.39" width="11.29" height="11.29" stroke="black" stroke-width="0.2" stroke-linecap="butt" fill="black"/>
    <rect x="191.94" y="270.97" width="11.29" height="11.29" stroke="black" stroke-width="0.2" stroke-linecap="butt" fill="black"/>
    <rect x="191.94" y="282.26" width="11.29" height="11.29" stroke="black" stroke-width="0.2" stroke-linecap="butt" fill="black"/>
    <rect x="191.94" y="304.84" width="11.29" height="11.29" stroke="black" stroke-width="0.2" stroke-linecap="butt" fill="black"/>
    <rect x="203.23" y="45.16" width="11.29" height="11.29" stroke="black" stroke-width="0.2" stroke-linecap="butt" fill="black"/>
    <rect x="203.23" y="67.74" width="11.29" height="11.29" stroke="black" stroke-width="0.2" stroke-linecap="butt" fill="black"/>
    <rect x="203.23" y="90.32" width="11.29" height="11.29" stroke="black" stroke-width="0.2" stroke-linecap="butt" fill="black"/>
    <rect x="203.23" y="146.77" width="11.29" height="11.29" stroke="black" stroke-width="0.2" stroke-linecap="butt" fill="black"/>
    <rect x="203.23" y="191.94" width="11.29" height="11.29" stroke="black" stroke-width="0.2" stroke-linecap="butt" fill="black"/>
    <rect x="203.23" y="214.52" width="11.29" height="11.29" stroke="black" stroke-width="0.2" stroke-linecap="butt" fill="black"/>
    <rect x="203.23" y="259.68" width="11.29" height="11.29" stroke="black" stroke-width="0.2" stroke-linecap="butt" fill="black"/>
    <rect x="203.23" y="293.55" width="11.29" height="11.29" stroke="black" stroke-width="0.2" stroke-linecap="butt" fill="black"/>
    <rect x="214.52" y="33.87" width="11.29" height="11.29" stroke="black" stroke-width="0.2" stroke-linecap="butt" fill="black"/>
    <rect x="214.52" y="67.74" width="11.29" height="11.29" stroke="black" stroke-width="0.2" stroke-linecap="butt" fill="black"/>
    <rect x="214.52" y="79.03" width="11.29" height="11.29" stroke="black" stroke-width="0.2" stroke-linecap="butt" fill="black"/>
    <rect x="214.52" y="90.32" width="11.29" height="11.29" stroke="black" stroke-width="0.2" stroke-linecap="butt" fill="black"/>
    <rect x="214.52" y="101.61" width="11.29" height="11.29" stroke="black" stroke-width="0.2" stroke-linecap="butt" fill="black"/>
    <rect x="214.52" y="112.90" width="11.29" height="11.29" stroke="black" stroke-width="0.2" stroke-linecap="butt" fill="black"/>
    <rect x="214.52" y="135.48" width="11.29" height="11.29" stroke="black" stroke-width="0.2" stroke-linecap="butt" fill="black"/>
    <rect x="214.52" y="158.06" width="11.29" height="11.29" stroke="black" stroke-width="0.2" stroke-linecap="butt" fill="black"/>
    <rect x="214.52" y="191.94" width="11.29" height="11.29" stroke="black" stroke-width="0.2" stroke-linecap="butt" fill="black"/>
    <rect x="214.52" y="214.52" width="11.29" height="11.29" stroke="black" stroke-width="0.2" stroke-linecap="butt" fill="black"/>
    <rect x="214.52" y="225.81" width="11.29" height="11.29" stroke="black" stroke-width="0.2" stroke-linecap="butt" fill="black"/>
    <rect x="214.52" y="237.10" width="11.29" height="11.29" stroke="black" stroke-width="0.2" stroke-linecap="butt" fill="black"/>
    <rect x="214.52" y="248.39" width="11.29" height="11.29" stroke="black" stroke-width="0.2" stroke-linecap="butt" fill="black"/>
    <rect x="214.52" y="259.68" width="11.29" height="11.29" stroke="black" stroke-width="0.2" stroke-linecap="butt" fill="black"/>
    <rect x="214.52" y="270.97" width="11.29" height="11.29" stroke="black" stroke-width="0.2" stroke-linecap="butt" fill="black"/>
    <rect x="214.52" y="293.55" width="11.29" height="11.29" stroke="black" stroke-width="0.2" stroke-linecap="butt" fill="black"/>
    <rect x="225.81" y="146.77" width="11.29" height="11.29" stroke="black" stroke-width="0.2" stroke-linecap="butt" fill="black"/>
    <rect x="225.81" y="158.06" width="11.29" height="11.29" stroke="black" stroke-width="0.2" stroke-linecap="butt" fill="black"/>
    <rect x="225.81" y="169.35" width="11.29" height="11.29" stroke="black" stroke-width="0.2" stroke-linecap="butt" fill="black"/>
    <rect x="225.81" y="180.65" width="11.29" height="11.29" stroke="black" stroke-width="0.2" stroke-linecap="butt" fill="black"/>
    <rect x="225.81" y="214.52" width="11.29" height="11.29" stroke="black" stroke-width="0.2" stroke-linecap="butt" fill="black"/>
    <rect x="225.81" y="259.68" width="11.29" height="11.29" stroke="black" stroke-width="0.2" stroke-linecap="butt" fill="black"/>
    <rect x="225.81" y="270.97" width="11.29" height="11.29" stroke="black" stroke-width="0.2" stroke-linecap="butt" fill="black"/>
    <rect x="225.81" y="304.84" width="11.29" height="11.29" stroke="black" stroke-width="0.2" stroke-linecap="butt" fill="black"/>
    <rect x="237.10" y="33.87" width="11.29" height="11.29" stroke="black" stroke-width="0.2" stroke-linecap="butt" fill="black"/>
    <rect x="237.10" y="45.16" width="11.29" height="11.29" stroke="black" stroke-width="0.2" stroke-linecap="butt" fill="black"/>
    <rect x="237.10" y="56.45" width="11.29" height="11.29" stroke="black" stroke-width="0.2" stroke-linecap="butt" fill="black"/>
    <rect x="237.10" y="67.74" width="11.29" height="11.29" stroke="black" stroke-width="0.2" stroke-linecap="butt" fill="black"/>
    <rect x="237.10" y="79.03" width="11.29" height="11.29" stroke="black" stroke-width="0.2" stroke-linecap="butt" fill="black"/>
    <rect x="237.10" y="90.32" width="11.29" height="11.29" stroke="black" stroke-width="0.2" stroke-linecap="butt" fill="black"/>
    <rect x="237.10" y="101.61" width="11.29" height="11.29" stroke="black" stroke-width="0.2" stroke-linecap="butt" fill="black"/>
    <rect x="237.10" y="124.19" width="11.29" height="11.29" stroke="black" stroke-width="0.2" stroke-linecap="butt" fill="black"/>
    <rect x="237.10" y="158.06" width="11.29" height="11.29" stroke="black" stroke-width="0.2" stroke-linecap="butt" fill="black"/>
    <rect x="237.10" y="169.35" width="11.29" height="11.29" stroke="black" stroke-width="0.2" stroke-linecap="butt" fill="black"/>
    <rect x="237.10" y="191.94" width="11.29" height="11.29" stroke="black" stroke-width="0.2" stroke-linecap="butt" fill="black"/>
    <rect x="237.10" y="203.23" width="11.29" height="11.29" stroke="black" stroke-width="0.2" stroke-linecap="butt" fill="black"/>
    <rect x="237.10" y="214.52" width="11.29" height="11.29" stroke="black" stroke-width="0.2" stroke-linecap="butt" fill="black"/>
    <rect x="237.10" y="237.10" width="11.29" height="11.29" stroke="black" stroke-width="0.2" stroke-linecap="butt" fill="black"/>
    <rect x="237.10" y="259.68" width="11.29" height="11.29" stroke="black" stroke-width="0.2" stroke-linecap="butt" fill="black"/>
    <rect x="237.10" y="270.97" width="11.29" height="11.29" stroke="black" stroke-width="0.2" stroke-linecap="butt" fill="black"/>
    <rect x="248.39" y="33.87" width="11.29" height="11.29" stroke="black" stroke-width="0.2" stroke-linecap="butt" fill="black"/>
    <rect x="248.39" y="101.61" width="11.29" height="11.29" stroke="black" stroke-width="0.2" stroke-linecap="butt" fill="black"/>
    <rect x="248.39" y="124.19" width="11.29" height="11.29" stroke="black" stroke-width="0.2" stroke-linecap="butt" fill="black"/>
    <rect x="248.39" y="169.35" width="11.29" height="11.29" stroke="black" stroke-width="0.2" stroke-linecap="butt" fill="black"/>
    <rect x="248.39" y="180.65" width="11.29" height="11.29" stroke="black" stroke-width="0.2" stroke-linecap="butt" fill="black"/>
    <rect x="248.39" y="191.94" width="11.29" height="11.29" stroke="black" stroke-width="0.2" stroke-linecap="butt" fill="black"/>
    <rect x="248.39" y="203.23" width="11.29" height="11.29" stroke="black" stroke-width="0.2" stroke-linecap="butt" fill="black"/>
    <rect x="248.39" y="214.52" width="11.29" height="11.29" stroke="black" stroke-width="0.2" stroke-linecap="butt" fill="black"/>
    <rect x="248.39" y="259.68" width="11.29" height="11.29" stroke="black" stroke-width="0.2" stroke-linecap="butt" fill="black"/>
    <rect x="248.39" y="293.55" width="11.29" height="11.29" stroke="black" stroke-width="0.2" stroke-linecap="butt" fill="black"/>
    <rect x="248.39" y="304.84" width="11.29" height="11.29" stroke="black" stroke-width="0.2" stroke-linecap="butt" fill="black"/>
    <rect x="259.68" y="33.87" width="11.29" height="11.29" stroke="black" stroke-width="0.2" stroke-linecap="butt" fill="black"/>
    <rect x="259.68" y="56.45" width="11.29" height="11.29" stroke="black" stroke-width="0.2" stroke-linecap="butt" fill="black"/>
    <rect x="259.68" y="67.74" width="11.29" height="11.29" stroke="black" stroke-width="0.2" stroke-linecap="butt" fill="black"/>
    <rect x="259.68" y="79.03" width="11.29" height="11.29" stroke="black" stroke-width="0.2" stroke-linecap="butt" fill="black"/>
    <rect x="259.68" y="101.61" width="11.29" height="11.29" stroke="black" stroke-width="0.2" stroke-linecap="butt" fill="black"/>
    <rect x="259.68" y="124.19" width="11.29" height="11.29" stroke="black" stroke-width="0.2" stroke-linecap="butt" fill="black"/>
    <rect x="259.68" y="146.77" width="11.29" height="11.29" stroke="black" stroke-width="0.2" stroke-linecap="butt" fill="black"/>
    <rect x="259.68" y="169.35" width="11.29" height="11.29" stroke="black" stroke-width="0.2" stroke-linecap="butt" fill="black"/>
    <rect x="259.68" y="191.94" width="11.29" height="11.29" stroke="black" stroke-width="0.2" stroke-linecap="butt" fill="black"/>
    <rect x="259.68" y="203.23" width="11.29" height="11.29" stroke="black" stroke-width="0.2" stroke-linecap="butt" fill="black"/>
    <rect x="259.68" y="214.52" width="11.29" height="11.29" stroke="black" stroke-width="0.2" stroke-linecap="butt" fill="black"/>
    <rect x="259.68" y="225.81" width="11.29" height="11.29" stroke="black" stroke-width="0.2" stroke-linecap="butt" fill="black"/>
    <rect x="259.68" y="237.10" width="11.29" height="11.29" stroke="black" stroke-width="0.2" stroke-linecap="butt" fill="black"/>
    <rect x="259.68" y="248.39" width="11.29" height="11.29" stroke="black" stroke-width="0.2" stroke-linecap="butt" fill="black"/>
    <rect x="259.68" y="259.68" width="11.29" height="11.29" stroke="black" stroke-width="0.2" stroke-linecap="butt" fill="black"/>
    <rect x="259.68" y="270.97" width="11.29" height="11.29" stroke="black" stroke-width="0.2" stroke-linecap="butt" fill="black"/>
    <rect x="259.68" y="293.55" width="11.29" height="11.29" stroke="black" stroke-width="0.2" stroke-linecap="butt" fill="black"/>
    <rect x="259.68" y="304.84" width="11.29" height="11.29" stroke="black" stroke-width="0.2" stroke-linecap="butt" fill="black"/>
    <rect x="270.97" y="33.87" width="11.29" height="11.29" stroke="black" stroke-width="0.2" stroke-linecap="butt" fill="black"/>
    <rect x="270.97" y="56.45" width="11.29" height="11.29" stroke="black" stroke-width="0.2" stroke-linecap="butt" fill="black"/>
    <rect x="270.97" y="67.74" width="11.29" height="11.29" stroke="black" stroke-width="0.2" stroke-linecap="butt" fill="black"/>
    <rect x="270.97" y="79.03" width="11.29" height="11.29" stroke="black" stroke-width="0.2" stroke-linecap="butt" fill="black"/>
    <rect x="270.97" y="101.61" width="11.29" height="11.29" stroke="black" stroke-width="0.2" stroke-linecap="butt" fill="black"/>
    <rect x="270.97" y="124.19" width="11.29" height="11.29" stroke="black" stroke-width="0.2" stroke-linecap="butt" fill="black"/>
    <rect x="270.97" y="146.77" width="11.29" height="11.29" stroke="black" stroke-width="0.2" stroke-linecap="butt" fill="black"/>
    <rect x="270.97" y="180.65" width="11.29" height="11.29" stroke="black" stroke-width="0.2" stroke-linecap="butt" fill="black"/>
    <rect x="270.97" y="191.94" width="11.29" height="11.29" stroke="black" stroke-width="0.2" stroke-linecap="butt" fill="black"/>
    <rect x="270.97" y="225.81" width="11.29" height="11.29" stroke="black" stroke-width="0.2" stroke-linecap="butt" fill="black"/>
    <rect x="270.97" y="248.39" width="11.29" height="11.29" stroke="black" stroke-width="0.2" stroke-linecap="butt" fill="black"/>
    <rect x="270.97" y="270.97" width="11.29" height="11.29" stroke="black" stroke-width="0.2" stroke-linecap="butt" fill="black"/>
    <rect x="270.97" y="282.26" width="11.29" height="11.29" stroke="black" stroke-width="0.2" stroke-linecap="butt" fill="black"/>
    <rect x="270.97" y="293.55" width="11.29" height="11.29" stroke="black" stroke-width="0.2" stroke-linecap="butt" fill="black"/>
    <rect x="270.97" y="304.84" width="11.29" height="11.29" stroke="black" stroke-width="0.2" stroke-linecap="butt" fill="black"/>
    <rect x="282.26" y="33.87" width="11.29" height="11.29" stroke="black" stroke-width="0.2" stroke-linecap="butt" fill="black"/>
    <rect x="282.26" y="56.45" width="11.29" height="11.29" stroke="black" stroke-width="0.2" stroke-linecap="butt" fill="black"/>
    <rect x="282.26" y="67.74" width="11.29" height="11.29" stroke="black" stroke-width="0.2" stroke-linecap="butt" fill="black"/>
    <rect x="282.26" y="79.03" width="11.29" height="11.29" stroke="black" stroke-width="0.2" stroke-linecap="butt" fill="black"/>
    <rect x="282.26" y="101.61" width="11.29" height="11.29" stroke="black" stroke-width="0.2" stroke-linecap="butt" fill="black"/>
    <rect x="282.26" y="124.19" width="11.29" height="11.29" stroke="black" stroke-width="0.2" stroke-linecap="butt" fill="black"/>
    <rect x="282.26" y="169.35" width="11.29" height="11.29" stroke="black" stroke-width="0.2" stroke-linecap="butt" fill="black"/>
    <rect x="282.26" y="214.52" width="11.29" height="11.29" stroke="black" stroke-width="0.2" stroke-linecap="butt" fill="black"/>
    <rect x="282.26" y="237.10" width="11.29" height="11.29" stroke="black" stroke-width="0.2" stroke-linecap="butt" fill="black"/>
    <rect x="282.26" y="259.68" width="11.29" height="11.29" stroke="black" stroke-width="0.2" stroke-linecap="butt" fill="black"/>
    <rect x="282.26" y="270.97" width="11.29" height="11.29" stroke="black" stroke-width="0.2" stroke-linecap="butt" fill="black"/>
    <rect x="282.26" y="282.26" width="11.29" height="11.29" stroke="black" stroke-width="0.2" stroke-linecap="butt" fill="black"/>
    <rect x="282.26" y="304.84" width="11.29" height="11.29" stroke="black" stroke-width="0.2" stroke-linecap="butt" fill="black"/>
    <rect x="293.55" y="33.87" width="11.29" height="11.29" stroke="black" stroke-width="0.2" stroke-linecap="butt" fill="black"/>
    <rect x="293.55" y="101.61" width="11.29" height="11.29" stroke="black" stroke-width="0.2" stroke-linecap="butt" fill="black"/>
    <rect x="293.55" y="135.48" width="11.29" height="11.29" stroke="black" stroke-width="0.2" stroke-linecap="butt" fill="black"/>
    <rect x="293.55" y="146.77" width="11.29" height="11.29" stroke="black" stroke-width="0.2" stroke-linecap="butt" fill="black"/>
    <rect x="293.55" y="169.35" width="11.29" height="11.29" stroke="black" stroke-width="0.2" stroke-linecap="butt" fill="black"/>
    <rect x="293.55" y="180.65" width="11.29" height="11.29" stroke="black" stroke-width="0.2" stroke-linecap="butt" fill="black"/>
    <rect x="293.55" y="191.94" width="11.29" height="11.29" stroke="black" stroke-width="0.2" stroke-linecap="butt" fill="black"/>
    <rect x="293.55" y="237.10" width="11.29" height="11.29" stroke="black" stroke-width="0.2" stroke-linecap="butt" fill="black"/>
    <rect x="293.55" y="270.97" width="11.29" height="11.29" stroke="black" stroke-width="0.2" stroke-linecap="butt" fill="black"/>
    <rect x="293.55" y="304.84" width="11.29" height="11.29" stroke="black" stroke-width="0.2" stroke-linecap="butt" fill="black"/>
    <rect x="304.84" y="33.87" width="11.29" height="11.29" stroke="black" stroke-width="0.2" stroke-linecap="butt" fill="black"/>
    <rect x="304.84" y="45.16" width="11.29" height="11.29" stroke="black" stroke-width="0.2" stroke-linecap="butt" fill="black"/>
    <rect x="304.84" y="56.45" width="11.29" height="11.29" stroke="black" stroke-width="0.2" stroke-linecap="butt" fill="black"/>
    <rect x="304.84" y="67.74" width="11.29" height="11.29" stroke="black" stroke-width="0.2" stroke-linecap="butt" fill="black"/>
    <rect x="304.84" y="79.03" width="11.29" height="11.29" stroke="black" stroke-width="0.2" stroke-linecap="butt" fill="black"/>
    <rect x="304.84" y="90.32" width="11.29" height="11.29" stroke="black" stroke-width="0.2" stroke-linecap="butt" fill="black"/>
    <rect x="304.84" y="101.61" width="11.29" height="11.29" stroke="black" stroke-width="0.2" stroke-linecap="butt" fill="black"/>
    <rect x="304.84" y="146.77" width="11.29" height="11.29" stroke="black" stroke-width="0.2" stroke-linecap="butt" fill="black"/>
    <rect x="304.84" y="158.06" width="11.29" height="11.29" stroke="black" stroke-width="0.2" stroke-linecap="butt" fill="black"/>
    <rect x="304.84" y="169.35" width="11.29" height="11.29" stroke="black" stroke-width="0.2" stroke-linecap="butt" fill="black"/>
    <rect x="304.84" y="191.94" width="11.29" height="11.29" stroke="black" stroke-width="0.2" stroke-linecap="butt" fill="black"/>
    <rect x="304.84" y="203.23" width="11.29" height="11.29" stroke="black" stroke-width="0.2" stroke-linecap="butt" fill="black"/>
    <rect x="304.84" y="237.10" width="11.29" height="11.29" stroke="black" stroke-width="0.2" stroke-linecap="butt" fill="black"/>
    <rect x="304.84" y="259.68" width="11.29" height="11.29" stroke="black" stroke-width="0.2" stroke-linecap="butt" fill="black"/>
    <rect x="304.84" y="270.97" width="11.29" height="11.29" stroke="black" stroke-width="0.2" stroke-linecap="butt" fill="black"/>
    <rect x="304.84" y="282.26" width="11.29" height="11.29" stroke="black" stroke-width="0.2" stroke-linecap="butt" fill="black"/>
    <rect x="304.84" y="293.55" width="11.29" height="11.29" stroke="black" stroke-width="0.2" stroke-linecap="butt" fill="black"/>
    <rect x="304.84" y="304.84" width="11.29" height="11.29" stroke="black" stroke-width="0.2" stroke-linecap="butt" fill="black"/>
  </g>
</svg>
