<svg xmlns="http://www.w3.org/2000/svg" xmlns:xlink="http://www.w3.org/1999/xlink" width="250" height="250"><g id="qrcode:http://hexb.in"><rect width="250" height="250" x="0" y="0" style="fill:#fff"/><rect width="9.26" height="9.26" x="27.78" y="27.78" fill="#000" stroke="#000" stroke-linecap="butt" stroke-width=".2"/><rect width="9.26" height="9.26" x="27.78" y="37.04" fill="#000" stroke="#000" stroke-linecap="butt" stroke-width=".2"/><rect width="9.26" height="9.26" x="27.78" y="46.3" fill="#000" stroke="#000" stroke-linecap="butt" stroke-width=".2"/><rect width="9.26" height="9.26" x="27.78" y="55.56" fill="#000" stroke="#000" stroke-linecap="butt" stroke-width=".2"/><rect width="9.26" height="9.26" x="27.78" y="64.81" fill="#000" stroke="#000" stroke-linecap="butt" stroke-width=".2"/><rect width="9.26" height="9.26" x="27.78" y="74.07" fill="#000" stroke="#000" stroke-linecap="butt" stroke-width=".2"/><rect width="9.26" height="9.26" x="27.78" y="83.33" fill="#000" stroke="#000" stroke-linecap="butt" stroke-width=".2"/><rect width="9.26" height="9.26" x="27.78" y="101.85" fill="#000" stroke="#000" stroke-linecap="butt" stroke-width=".2"/><rect width="9.26" height="9.26" x="27.78" y="157.41" fill="#000" stroke="#000" stroke-linecap="butt" stroke-width=".2"/><rect width="9.26" height="9.26" x="27.78" y="166.67" fill="#000" stroke="#000" stroke-linecap="butt" stroke-width=".2"/><rect width="9.26" height="9.26" x="27.78" y="175.93" fill="#000" stroke="#000" stroke-linecap="butt" stroke-width=".2"/><rect width="9.26" height="9.26" x="27.78" y="185.19" fill="#000" stroke="#000" stroke-linecap="butt" stroke-width=".2"/><rect width="9.26" height="9.26" x="27.78" y="194.44" fill="#000" stroke="#000" stroke-linecap="butt" stroke-width=".2"/><rect width="9.26" height="9.26" x="27.78" y="203.7" fill="#000" stroke="#000" stroke-linecap="butt" stroke-width=".2"/><rect width="9.26" height="9.26" x="27.78" y="212.96" fill="#000" stroke="#000" stroke-linecap="butt" stroke-width=".2"/><rect width="9.26" height="9.26" x="37.04" y="27.78" fill="#000" stroke="#000" stroke-linecap="butt" stroke-width=".2"/><rect width="9.26" height="9.26" x="37.04" y="83.33" fill="#000" stroke="#000" stroke-linecap="butt" stroke-width=".2"/><rect width="9.26" height="9.26" x="37.04" y="120.37" fill="#000" stroke="#000" stroke-linecap="butt" stroke-width=".2"/><rect width="9.26" height="9.26" x="37.04" y="157.41" fill="#000" stroke="#000" stroke-linecap="butt" stroke-width=".2"/><rect width="9.26" height="9.26" x="37.04" y="212.96" fill="#000" stroke="#000" stroke-linecap="butt" stroke-width=".2"/><rect width="9.26" height="9.26" x="46.3" y="27.78" fill="#000" stroke="#000" stroke-linecap="butt" stroke-width=".2"/><rect width="9.26" height="9.26" x="46.3" y="46.3" fill="#000" stroke="#000" stroke-linecap="butt" stroke-width=".2"/><rect width="9.26" height="9.26" x="46.3" y="55.56" fill="#000" stroke="#000" stroke-linecap="butt" stroke-width=".2"/><rect width="9.26" height="9.26" x="46.3" y="64.81" fill="#000" stroke="#000" stroke-linecap="butt" stroke-width=".2"/><rect width="9.26" height="9.26" x="46.3" y="83.33" fill="#000" stroke="#000" stroke-linecap="butt" stroke-width=".2"/><rect width="9.26" height="9.26" x="46.3" y="101.85" fill="#000" stroke="#000" stroke-linecap="butt" stroke-width=".2"/><rect width="9.26" height="9.26" x="46.3" y="111.11" fill="#000" stroke="#000" stroke-linecap="butt" stroke-width=".2"/><rect width="9.26" height="9.26" x="46.3" y="120.37" fill="#000" stroke="#000" stroke-linecap="butt" stroke-width=".2"/><rect width="9.26" height="9.26" x="46.3" y="138.89" fill="#000" stroke="#000" stroke-linecap="butt" stroke-width=".2"/><rect width="9.26" height="9.26" x="46.3" y="157.41" fill="#000" stroke="#000" stroke-linecap="butt" stroke-width=".2"/><rect width="9.26" height="9.26" x="46.3" y="175.93" fill="#000" stroke="#000" stroke-linecap="butt" stroke-width=".2"/><rect width="9.26" height="9.26" x="46.3" y="185.19" fill="#000" stroke="#000" stroke-linecap="butt" stroke-width=".2"/><rect width="9.26" height="9.26" x="46.3" y="194.44" fill="#000" stroke="#000" stroke-linecap="butt" stroke-width=".2"/><rect width="9.26" height="9.26" x="46.3" y="212.96" fill="#000" stroke="#000" stroke-linecap="butt" stroke-width=".2"/><rect width="9.26" height="9.26" x="55.56" y="27.78" fill="#000" stroke="#000" stroke-linecap="butt" stroke-width=".2"/><rect width="9.26" height="9.26" x="55.56" y="46.3" fill="#000" stroke="#000" stroke-linecap="butt" stroke-width=".2"/><rect width="9.26" height="9.26" x="55.56" y="55.56" fill="#000" stroke="#000" stroke-linecap="butt" stroke-width=".2"/><rect width="9.26" height="9.26" x="55.56" y="64.81" fill="#000" stroke="#000" stroke-linecap="butt" stroke-width=".2"/><rect width="9.26" height="9.26" x="55.56" y="83.33" fill="#000" stroke="#000" stroke-linecap="butt" stroke-width=".2"/><rect width="9.26" height="9.26" x="55.56" y="101.85" fill="#000" stroke="#000" stroke-linecap="butt" stroke-width=".2"/><rect width="9.26" height="9.26" x="55.56" y="120.37" fill="#000" stroke="#000" stroke-linecap="butt" stroke-width=".2"/><rect width="9.26" height="9.26" x="55.56" y="129.63" fill="#000" stroke="#000" stroke-linecap="butt" stroke-width=".2"/><rect width="9.26" height="9.26" x="55.56" y="138.89" fill="#000" stroke="#000" stroke-linecap="butt" stroke-width=".2"/><rect width="9.26" height="9.26" x="55.56" y="157.41" fill="#000" stroke="#000" stroke-linecap="butt" stroke-width=".2"/><rect width="9.26" height="9.26" x="55.56" y="175.93" fill="#000" stroke="#000" stroke-linecap="butt" stroke-width=".2"/><rect width="9.26" height="9.26" x="55.56" y="185.19" fill="#000" stroke="#000" stroke-linecap="butt" stroke-width=".2"/><rect width="9.26" height="9.26" x="55.56" y="194.44" fill="#000" stroke="#000" stroke-linecap="butt" stroke-width=".2"/><rect width="9.26" height="9.26" x="55.56" y="212.96" fill="#000" stroke="#000" stroke-linecap="butt" stroke-width=".2"/><rect width="9.26" height="9.26" x="64.81" y="27.78" fill="#000" stroke="#000" stroke-linecap="butt" stroke-width=".2"/><rect width="9.26" height="9.26" x="64.81" y="46.3" fill="#000" stroke="#000" stroke-linecap="butt" stroke-width=".2"/><rect width="9.26" height="9.26" x="64.81" y="55.56" fill="#000" stroke="#000" stroke-linecap="butt" stroke-width=".2"/><rect width="9.26" height="9.26" x="64.81" y="64.81" fill="#000" stroke="#000" stroke-linecap="butt" stroke-width=".2"/><rect width="9.26" height="9.26" x="64.81" y="83.33" fill="#000" stroke="#000" stroke-linecap="butt" stroke-width=".2"/><rect width="9.26" height="9.26" x="64.81" y="101.85" fill="#000" stroke="#000" stroke-linecap="butt" stroke-width=".2"/><rect width="9.26" height="9.26" x="64.81" y="111.11" fill="#000" stroke="#000" stroke-linecap="butt" stroke-width=".2"/><rect width="9.26" height="9.26" x="64.81" y="138.89" fill="#000" stroke="#000" stroke-linecap="butt" stroke-width=".2"/><rect width="9.26" height="9.26" x="64.81" y="157.41" fill="#000" stroke="#000" stroke-linecap="butt" stroke-width=".2"/><rect width="9.26" height="9.26" x="64.81" y="175.93" fill="#000" stroke="#000" stroke-linecap="butt" stroke-width=".2"/><rect width="9.26" height="9.26" x="64.81" y="185.19" fill="#000" stroke="#000" stroke-linecap="butt" stroke-width=".2"/><rect width="9.26" height="9.26" x="64.81" y="194.44" fill="#000" stroke="#000" stroke-linecap="butt" stroke-width=".2"/><rect width="9.26" height="9.26" x="64.81" y="212.96" fill="#000" stroke="#000" stroke-linecap="butt" stroke-width=".2"/><rect width="9.26" height="9.26" x="74.07" y="27.78" fill="#000" stroke="#000" stroke-linecap="butt" stroke-width=".2"/><rect width="9.26" height="9.26" x="74.07" y="83.33" fill="#000" stroke="#000" stroke-linecap="butt" stroke-width=".2"/><rect width="9.26" height="9.26" x="74.07" y="101.85" fill="#000" stroke="#000" stroke-linecap="butt" stroke-width=".2"/><rect width="9.26" height="9.26" x="74.07" y="111.11" fill="#000" stroke="#000" stroke-linecap="butt" stroke-width=".2"/><rect width="9.26" height="9.26" x="74.07" y="138.89" fill="#000" stroke="#000" stroke-linecap="butt" stroke-width=".2"/><rect width="9.26" height="9.26" x="74.07" y="157.41" fill="#000" stroke="#000" stroke-linecap="butt" stroke-width=".2"/><rect width="9.26" height="9.26" x="74.07" y="212.96" fill="#000" stroke="#000" stroke-linecap="butt" stroke-width=".2"/><rect width="9.26" height="9.26" x="83.33" y="27.78" fill="#000" stroke="#000" stroke-linecap="butt" stroke-width=".2"/><rect width="9.26" height="9.26" x="83.33" y="37.04" fill="#000" stroke="#000" stroke-linecap="butt" stroke-width=".2"/><rect width="9.26" height="9.26" x="83.33" y="46.3" fill="#000" stroke="#000" stroke-linecap="butt" stroke-width=".2"/><rect width="9.26" height="9.26" x="83.33" y="55.56" fill="#000" stroke="#000" stroke-linecap="butt" stroke-width=".2"/><rect width="9.26" height="9.26" x="83.33" y="64.81" fill="#000" stroke="#000" stroke-linecap="butt" stroke-width=".2"/><rect width="9.26" height="9.26" x="83.33" y="74.07" fill="#000" stroke="#000" stroke-linecap="butt" stroke-width=".2"/><rect width="9.26" height="9.26" x="83.33" y="83.33" fill="#000" stroke="#000" stroke-linecap="butt" stroke-width=".2"/><rect width="9.26" height="9.26" x="83.33" y="101.85" fill="#000" stroke="#000" stroke-linecap="butt" stroke-width=".2"/><rect width="9.26" height="9.26" x="83.33" y="120.37" fill="#000" stroke="#000" stroke-linecap="butt" stroke-width=".2"/><rect width="9.26" height="9.26" x="83.33" y="138.89" fill="#000" stroke="#000" stroke-linecap="butt" stroke-width=".2"/><rect width="9.26" height="9.26" x="83.33" y="157.41" fill="#000" stroke="#000" stroke-linecap="butt" stroke-width=".2"/><rect width="9.26" height="9.26" x="83.33" y="166.67" fill="#000" stroke="#000" stroke-linecap="butt" stroke-width=".2"/><rect width="9.26" height="9.26" x="83.33" y="175.93" fill="#000" stroke="#000" stroke-linecap="butt" stroke-width=".2"/><rect width="9.26" height="9.26" x="83.33" y="185.19" fill="#000" stroke="#000" stroke-linecap="butt" stroke-width=".2"/><rect width="9.26" height="9.26" x="83.33" y="194.44" fill="#000" stroke="#000" stroke-linecap="butt" stroke-width=".2"/><rect width="9.26" height="9.26" x="83.33" y="203.7" fill="#000" stroke="#000" stroke-linecap="butt" stroke-width=".2"/><rect width="9.26" height="9.26" x="83.33" y="212.96" fill="#000" stroke="#000" stroke-linecap="butt" stroke-width=".2"/><rect width="9.26" height="9.26" x="92.59" y="111.11" fill="#000" stroke="#000" stroke-linecap="butt" stroke-width=".2"/><rect width="9.26" height="9.26" x="92.59" y="129.63" fill="#000" stroke="#000" stroke-linecap="butt" stroke-width=".2"/><rect width="9.26" height="9.26" x="101.85" y="46.3" fill="#000" stroke="#000" stroke-linecap="butt" stroke-width=".2"/><rect width="9.26" height="9.26" x="101.85" y="55.56" fill="#000" stroke="#000" stroke-linecap="butt" stroke-width=".2"/><rect width="9.26" height="9.26" x="101.85" y="64.81" fill="#000" stroke="#000" stroke-linecap="butt" stroke-width=".2"/><rect width="9.26" height="9.26" x="101.85" y="74.07" fill="#000" stroke="#000" stroke-linecap="butt" stroke-width=".2"/><rect width="9.26" height="9.26" x="101.85" y="83.33" fill="#000" stroke="#000" stroke-linecap="butt" stroke-width=".2"/><rect width="9.26" height="9.26" x="101.85" y="92.59" fill="#000" stroke="#000" stroke-linecap="butt" stroke-width=".2"/><rect width="9.26" height="9.26" x="101.85" y="111.11" fill="#000" stroke="#000" stroke-linecap="butt" stroke-width=".2"/><rect width="9.26" height="9.26" x="101.85" y="129.63" fill="#000" stroke="#000" stroke-linecap="butt" stroke-width=".2"/><rect width="9.26" height="9.26" x="101.85" y="148.15" fill="#000" stroke="#000" stroke-linecap="butt" stroke-width=".2"/><rect width="9.26" height="9.26" x="101.85" y="166.67" fill="#000" stroke="#000" stroke-linecap="butt" stroke-width=".2"/><rect width="9.26" height="9.26" x="101.85" y="175.93" fill="#000" stroke="#000" stroke-linecap="butt" stroke-width=".2"/><rect width="9.26" height="9.26" x="101.85" y="185.19" fill="#000" stroke="#000" stroke-linecap="butt" stroke-width=".2"/><rect width="9.26" height="9.26" x="101.85" y="194.44" fill="#000" stroke="#000" stroke-linecap="butt" stroke-width=".2"/><rect width="9.26" height="9.26" x="101.85" y="212.96" fill="#000" stroke="#000" stroke-linecap="butt" stroke-width=".2"/><rect width="9.26" height="9.26" x="111.11" y="37.04" fill="#000" stroke="#000" stroke-linecap="butt" stroke-width=".2"/><rect width="9.26" height="9.26" x="111.11" y="46.3" fill="#000" stroke="#000" stroke-linecap="butt" stroke-width=".2"/><rect width="9.26" height="9.26" x="111.11" y="55.56" fill="#000" stroke="#000" stroke-linecap="butt" stroke-width=".2"/><rect width="9.26" height="9.26" x="111.11" y="92.59" fill="#000" stroke="#000" stroke-linecap="butt" stroke-width=".2"/><rect width="9.26" height="9.26" x="111.11" y="101.85" fill="#000" stroke="#000" stroke-linecap="butt" stroke-width=".2"/><rect width="9.26" height="9.26" x="111.11" y="111.11" fill="#000" stroke="#000" stroke-linecap="butt" stroke-width=".2"/><rect width="9.26" height="9.26" x="111.11" y="138.89" fill="#000" stroke="#000" stroke-linecap="butt" stroke-width=".2"/><rect width="9.26" height="9.26" x="111.11" y="157.41" fill="#000" stroke="#000" stroke-linecap="butt" stroke-width=".2"/><rect width="9.26" height="9.26" x="111.11" y="166.67" fill="#000" stroke="#000" stroke-linecap="butt" stroke-width=".2"/><rect width="9.26" height="9.26" x="111.11" y="175.93" fill="#000" stroke="#000" stroke-linecap="butt" stroke-width=".2"/><rect width="9.26" height="9.26" x="120.37" y="27.78" fill="#000" stroke="#000" stroke-linecap="butt" stroke-width=".2"/><rect width="9.26" height="9.26" x="120.37" y="55.56" fill="#000" stroke="#000" stroke-linecap="butt" stroke-width=".2"/><rect width="9.26" height="9.26" x="120.37" y="83.33" fill="#000" stroke="#000" stroke-linecap="butt" stroke-width=".2"/><rect width="9.26" height="9.26" x="120.37" y="92.59" fill="#000" stroke="#000" stroke-linecap="butt" stroke-width=".2"/><rect width="9.26" height="9.26" x="120.37" y="101.85" fill="#000" stroke="#000" stroke-linecap="butt" stroke-width=".2"/><rect width="9.26" height="9.26" x="120.37" y="129.63" fill="#000" stroke="#000" stroke-linecap="butt" stroke-width=".2"/><rect width="9.26" height="9.26" x="120.37" y="148.15" fill="#000" stroke="#000" stroke-linecap="butt" stroke-width=".2"/><rect width="9.26" height="9.26" x="120.37" y="157.41" fill="#000" stroke="#000" stroke-linecap="butt" stroke-width=".2"/><rect width="9.26" height="9.26" x="120.37" y="166.67" fill="#000" stroke="#000" stroke-linecap="butt" stroke-width=".2"/><rect width="9.26" height="9.26" x="120.37" y="175.93" fill="#000" stroke="#000" stroke-linecap="butt" stroke-width=".2"/><rect width="9.26" height="9.26" x="120.37" y="203.7" fill="#000" stroke="#000" stroke-linecap="butt" stroke-width=".2"/><rect width="9.26" height="9.26" x="129.63" y="46.3" fill="#000" stroke="#000" stroke-linecap="butt" stroke-width=".2"/><rect width="9.26" height="9.26" x="129.63" y="101.85" fill="#000" stroke="#000" stroke-linecap="butt" stroke-width=".2"/><rect width="9.26" height="9.26" x="129.63" y="120.37" fill="#000" stroke="#000" stroke-linecap="butt" stroke-width=".2"/><rect width="9.26" height="9.26" x="129.63" y="129.63" fill="#000" stroke="#000" stroke-linecap="butt" stroke-width=".2"/><rect width="9.26" height="9.26" x="129.63" y="157.41" fill="#000" stroke="#000" stroke-linecap="butt" stroke-width=".2"/><rect width="9.26" height="9.26" x="129.63" y="175.93" fill="#000" stroke="#000" stroke-linecap="butt" stroke-width=".2"/><rect width="9.26" height="9.26" x="138.89" y="27.78" fill="#000" stroke="#000" stroke-linecap="butt" stroke-width=".2"/><rect width="9.26" height="9.26" x="138.89" y="37.04" fill="#000" stroke="#000" stroke-linecap="butt" stroke-width=".2"/><rect width="9.26" height="9.26" x="138.89" y="46.3" fill="#000" stroke="#000" stroke-linecap="butt" stroke-width=".2"/><rect width="9.26" height="9.26" x="138.89" y="64.81" fill="#000" stroke="#000" stroke-linecap="butt" stroke-width=".2"/><rect width="9.26" height="9.26" x="138.89" y="74.07" fill="#000" stroke="#000" stroke-linecap="butt" stroke-width=".2"/><rect width="9.26" height="9.26" x="138.89" y="83.33" fill="#000" stroke="#000" stroke-linecap="butt" stroke-width=".2"/><rect width="9.26" height="9.26" x="138.89" y="120.37" fill="#000" stroke="#000" stroke-linecap="butt" stroke-width=".2"/><rect width="9.26" height="9.26" x="138.89" y="129.63" fill="#000" stroke="#000" stroke-linecap="butt" stroke-width=".2"/><rect width="9.26" height="9.26" x="138.89" y="157.41" fill="#000" stroke="#000" stroke-linecap="butt" stroke-width=".2"/><rect width="9.26" height="9.26" x="138.89" y="194.44" fill="#000" stroke="#000" stroke-linecap="butt" stroke-width=".2"/><rect width="9.26" height="9.26" x="138.89" y="212.96" fill="#000" stroke="#000" stroke-linecap="butt" stroke-width=".2"/><rect width="9.26" height="9.26" x="148.15" y="129.63" fill="#000" stroke="#000" stroke-linecap="butt" stroke-width=".2"/><rect width="9.26" height="9.26" x="148.15" y="148.15" fill="#000" stroke="#000" stroke-linecap="butt" stroke-width=".2"/><rect width="9.26" height="9.26" x="148.15" y="157.41" fill="#000" stroke="#000" stroke-linecap="butt" stroke-width=".2"/><rect width="9.26" height="9.26" x="148.15" y="166.67" fill="#000" stroke="#000" stroke-linecap="butt" stroke-width=".2"/><rect width="9.26" height="9.26" x="148.15" y="175.93" fill="#000" stroke="#000" stroke-linecap="butt" stroke-width=".2"/><rect width="9.26" height="9.26" x="148.15" y="203.7" fill="#000" stroke="#000" stroke-linecap="butt" stroke-width=".2"/><rect width="9.26" height="9.26" x="157.41" y="27.78" fill="#000" stroke="#000" stroke-linecap="butt" stroke-width=".2"/><rect width="9.26" height="9.26" x="157.41" y="37.04" fill="#000" stroke="#000" stroke-linecap="butt" stroke-width=".2"/><rect width="9.26" height="9.26" x="157.41" y="46.3" fill="#000" stroke="#000" stroke-linecap="butt" stroke-width=".2"/><rect width="9.26" height="9.26" x="157.41" y="55.56" fill="#000" stroke="#000" stroke-linecap="butt" stroke-width=".2"/><rect width="9.26" height="9.26" x="157.41" y="64.81" fill="#000" stroke="#000" stroke-linecap="butt" stroke-width=".2"/><rect width="9.26" height="9.26" x="157.41" y="74.07" fill="#000" stroke="#000" stroke-linecap="butt" stroke-width=".2"/><rect width="9.26" height="9.26" x="157.41" y="83.33" fill="#000" stroke="#000" stroke-linecap="butt" stroke-width=".2"/><rect width="9.26" height="9.26" x="157.41" y="101.85" fill="#000" stroke="#000" stroke-linecap="butt" stroke-width=".2"/><rect width="9.26" height="9.26" x="157.41" y="111.11" fill="#000" stroke="#000" stroke-linecap="butt" stroke-width=".2"/><rect width="9.26" height="9.26" x="157.41" y="138.89" fill="#000" stroke="#000" stroke-linecap="butt" stroke-width=".2"/><rect width="9.26" height="9.26" x="157.41" y="175.93" fill="#000" stroke="#000" stroke-linecap="butt" stroke-width=".2"/><rect width="9.26" height="9.26" x="157.41" y="185.19" fill="#000" stroke="#000" stroke-linecap="butt" stroke-width=".2"/><rect width="9.26" height="9.26" x="157.41" y="212.96" fill="#000" stroke="#000" stroke-linecap="butt" stroke-width=".2"/><rect width="9.26" height="9.26" x="166.67" y="27.78" fill="#000" stroke="#000" stroke-linecap="butt" stroke-width=".2"/><rect width="9.26" height="9.26" x="166.67" y="83.33" fill="#000" stroke="#000" stroke-linecap="butt" stroke-width=".2"/><rect width="9.26" height="9.26" x="166.67" y="101.85" fill="#000" stroke="#000" stroke-linecap="butt" stroke-width=".2"/><rect width="9.26" height="9.26" x="166.67" y="111.11" fill="#000" stroke="#000" stroke-linecap="butt" stroke-width=".2"/><rect width="9.26" height="9.26" x="166.67" y="148.15" fill="#000" stroke="#000" stroke-linecap="butt" stroke-width=".2"/><rect width="9.26" height="9.26" x="166.67" y="157.41" fill="#000" stroke="#000" stroke-linecap="butt" stroke-width=".2"/><rect width="9.26" height="9.26" x="166.67" y="185.19" fill="#000" stroke="#000" stroke-linecap="butt" stroke-width=".2"/><rect width="9.26" height="9.26" x="166.67" y="194.44" fill="#000" stroke="#000" stroke-linecap="butt" stroke-width=".2"/><rect width="9.26" height="9.26" x="166.67" y="203.7" fill="#000" stroke="#000" stroke-linecap="butt" stroke-width=".2"/><rect width="9.26" height="9.26" x="166.67" y="212.96" fill="#000" stroke="#000" stroke-linecap="butt" stroke-width=".2"/><rect width="9.26" height="9.26" x="175.93" y="27.78" fill="#000" stroke="#000" stroke-linecap="butt" stroke-width=".2"/><rect width="9.26" height="9.26" x="175.93" y="46.3" fill="#000" stroke="#000" stroke-linecap="butt" stroke-width=".2"/><rect width="9.26" height="9.26" x="175.93" y="55.56" fill="#000" stroke="#000" stroke-linecap="butt" stroke-width=".2"/><rect width="9.26" height="9.26" x="175.93" y="64.81" fill="#000" stroke="#000" stroke-linecap="butt" stroke-width=".2"/><rect width="9.26" height="9.26" x="175.93" y="83.33" fill="#000" stroke="#000" stroke-linecap="butt" stroke-width=".2"/><rect width="9.26" height="9.26" x="175.93" y="101.85" fill="#000" stroke="#000" stroke-linecap="butt" stroke-width=".2"/><rect width="9.26" height="9.26" x="175.93" y="111.11" fill="#000" stroke="#000" stroke-linecap="butt" stroke-width=".2"/><rect width="9.26" height="9.26" x="175.93" y="129.63" fill="#000" stroke="#000" stroke-linecap="butt" stroke-width=".2"/><rect width="9.26" height="9.26" x="175.93" y="138.89" fill="#000" stroke="#000" stroke-linecap="butt" stroke-width=".2"/><rect width="9.26" height="9.26" x="175.93" y="148.15" fill="#000" stroke="#000" stroke-linecap="butt" stroke-width=".2"/><rect width="9.26" height="9.26" x="175.93" y="166.67" fill="#000" stroke="#000" stroke-linecap="butt" stroke-width=".2"/><rect width="9.26" height="9.26" x="175.93" y="175.93" fill="#000" stroke="#000" stroke-linecap="butt" stroke-width=".2"/><rect width="9.26" height="9.26" x="175.93" y="185.19" fill="#000" stroke="#000" stroke-linecap="butt" stroke-width=".2"/><rect width="9.26" height="9.26" x="175.93" y="203.7" fill="#000" stroke="#000" stroke-linecap="butt" stroke-width=".2"/><rect width="9.26" height="9.26" x="175.93" y="212.96" fill="#000" stroke="#000" stroke-linecap="butt" stroke-width=".2"/><rect width="9.26" height="9.26" x="185.19" y="27.78" fill="#000" stroke="#000" stroke-linecap="butt" stroke-width=".2"/><rect width="9.26" height="9.26" x="185.19" y="46.3" fill="#000" stroke="#000" stroke-linecap="butt" stroke-width=".2"/><rect width="9.26" height="9.26" x="185.19" y="55.56" fill="#000" stroke="#000" stroke-linecap="butt" stroke-width=".2"/><rect width="9.26" height="9.26" x="185.19" y="64.81" fill="#000" stroke="#000" stroke-linecap="butt" stroke-width=".2"/><rect width="9.26" height="9.26" x="185.19" y="83.33" fill="#000" stroke="#000" stroke-linecap="butt" stroke-width=".2"/><rect width="9.26" height="9.26" x="185.19" y="101.85" fill="#000" stroke="#000" stroke-linecap="butt" stroke-width=".2"/><rect width="9.26" height="9.26" x="185.19" y="111.11" fill="#000" stroke="#000" stroke-linecap="butt" stroke-width=".2"/><rect width="9.26" height="9.26" x="185.19" y="129.63" fill="#000" stroke="#000" stroke-linecap="butt" stroke-width=".2"/><rect width="9.26" height="9.26" x="185.19" y="138.89" fill="#000" stroke="#000" stroke-linecap="butt" stroke-width=".2"/><rect width="9.26" height="9.26" x="185.19" y="148.15" fill="#000" stroke="#000" stroke-linecap="butt" stroke-width=".2"/><rect width="9.26" height="9.26" x="185.19" y="166.67" fill="#000" stroke="#000" stroke-linecap="butt" stroke-width=".2"/><rect width="9.26" height="9.26" x="185.19" y="175.93" fill="#000" stroke="#000" stroke-linecap="butt" stroke-width=".2"/><rect width="9.26" height="9.26" x="185.19" y="212.96" fill="#000" stroke="#000" stroke-linecap="butt" stroke-width=".2"/><rect width="9.26" height="9.26" x="194.44" y="27.78" fill="#000" stroke="#000" stroke-linecap="butt" stroke-width=".2"/><rect width="9.26" height="9.26" x="194.44" y="46.3" fill="#000" stroke="#000" stroke-linecap="butt" stroke-width=".2"/><rect width="9.26" height="9.26" x="194.44" y="55.56" fill="#000" stroke="#000" stroke-linecap="butt" stroke-width=".2"/><rect width="9.26" height="9.26" x="194.44" y="64.81" fill="#000" stroke="#000" stroke-linecap="butt" stroke-width=".2"/><rect width="9.26" height="9.26" x="194.44" y="83.33" fill="#000" stroke="#000" stroke-linecap="butt" stroke-width=".2"/><rect width="9.26" height="9.26" x="194.44" y="101.85" fill="#000" stroke="#000" stroke-linecap="butt" stroke-width=".2"/><rect width="9.26" height="9.26" x="194.44" y="111.11" fill="#000" stroke="#000" stroke-linecap="butt" stroke-width=".2"/><rect width="9.26" height="9.26" x="194.44" y="120.37" fill="#000" stroke="#000" stroke-linecap="butt" stroke-width=".2"/><rect width="9.26" height="9.26" x="194.44" y="129.63" fill="#000" stroke="#000" stroke-linecap="butt" stroke-width=".2"/><rect width="9.26" height="9.26" x="194.44" y="148.15" fill="#000" stroke="#000" stroke-linecap="butt" stroke-width=".2"/><rect width="9.26" height="9.26" x="194.44" y="157.41" fill="#000" stroke="#000" stroke-linecap="butt" stroke-width=".2"/><rect width="9.26" height="9.26" x="194.44" y="166.67" fill="#000" stroke="#000" stroke-linecap="butt" stroke-width=".2"/><rect width="9.26" height="9.26" x="194.44" y="185.19" fill="#000" stroke="#000" stroke-linecap="butt" stroke-width=".2"/><rect width="9.26" height="9.26" x="194.44" y="194.44" fill="#000" stroke="#000" stroke-linecap="butt" stroke-width=".2"/><rect width="9.26" height="9.26" x="194.44" y="203.7" fill="#000" stroke="#000" stroke-linecap="butt" stroke-width=".2"/><rect width="9.26" height="9.26" x="203.7" y="27.78" fill="#000" stroke="#000" stroke-linecap="butt" stroke-width=".2"/><rect width="9.26" height="9.26" x="203.7" y="83.33" fill="#000" stroke="#000" stroke-linecap="butt" stroke-width=".2"/><rect width="9.26" height="9.26" x="203.7" y="111.11" fill="#000" stroke="#000" stroke-linecap="butt" stroke-width=".2"/><rect width="9.26" height="9.26" x="203.7" y="120.37" fill="#000" stroke="#000" stroke-linecap="butt" stroke-width=".2"/><rect width="9.26" height="9.26" x="203.7" y="157.41" fill="#000" stroke="#000" stroke-linecap="butt" stroke-width=".2"/><rect width="9.26" height="9.26" x="203.7" y="175.93" fill="#000" stroke="#000" stroke-linecap="butt" stroke-width=".2"/><rect width="9.26" height="9.26" x="203.7" y="212.96" fill="#000" stroke="#000" stroke-linecap="butt" stroke-width=".2"/><rect width="9.26" height="9.26" x="212.96" y="27.78" fill="#000" stroke="#000" stroke-linecap="butt" stroke-width=".2"/><rect width="9.26" height="9.26" x="212.96" y="37.04" fill="#000" stroke="#000" stroke-linecap="butt" stroke-width=".2"/><rect width="9.26" height="9.26" x="212.96" y="46.3" fill="#000" stroke="#000" stroke-linecap="butt" stroke-width=".2"/><rect width="9.26" height="9.26" x="212.96" y="55.56" fill="#000" stroke="#000" stroke-linecap="butt" stroke-width=".2"/><rect width="9.26" height="9.26" x="212.96" y="64.81" fill="#000" stroke="#000" stroke-linecap="butt" stroke-width=".2"/><rect width="9.26" height="9.26" x="212.96" y="74.07" fill="#000" stroke="#000" stroke-linecap="butt" stroke-width=".2"/><rect width="9.26" height="9.26" x="212.96" y="83.33" fill="#000" stroke="#000" stroke-linecap="butt" stroke-width=".2"/><rect width="9.26" height="9.26" x="212.96" y="111.11" fill="#000" stroke="#000" stroke-linecap="butt" stroke-width=".2"/><rect width="9.26" height="9.26" x="212.96" y="138.89" fill="#000" stroke="#000" stroke-linecap="butt" stroke-width=".2"/><rect width="9.26" height="9.26" x="212.96" y="148.15" fill="#000" stroke="#000" stroke-linecap="butt" stroke-width=".2"/><rect width="9.26" height="9.26" x="212.96" y="166.67" fill="#000" stroke="#000" stroke-linecap="butt" stroke-width=".2"/><rect width="9.26" height="9.26" x="212.96" y="175.93" fill="#000" stroke="#000" stroke-linecap="butt" stroke-width=".2"/></g></svg>