<?xml version="1.0" encoding="UTF-8" ?>
<svg xmlns="http://www.w3.org/2000/svg" xmlns:xlink="http://www.w3.org/1999/xlink" height="250" width="250">
  <g id="qrcode:http://hexb.in">
    <rect x="0" y="0" width="250px" height="250px" style="fill:white;"/>
    <rect x="27.78" y="27.78" width="9.26" height="9.26" stroke="black" stroke-width="0.2" stroke-linecap="butt" fill="black"/>
    <rect x="27.78" y="37.04" width="9.26" height="9.26" stroke="black" stroke-width="0.2" stroke-linecap="butt" fill="black"/>
    <rect x="27.78" y="46.30" width="9.26" height="9.26" stroke="black" stroke-width="0.2" stroke-linecap="butt" fill="black"/>
    <rect x="27.78" y="55.56" width="9.26" height="9.26" stroke="black" stroke-width="0.2" stroke-linecap="butt" fill="black"/>
    <rect x="27.78" y="64.81" width="9.26" height="9.26" stroke="black" stroke-width="0.2" stroke-linecap="butt" fill="black"/>
    <rect x="27.78" y="74.07" width="9.26" height="9.26" stroke="black" stroke-width="0.2" stroke-linecap="butt" fill="black"/>
    <rect x="27.78" y="83.33" width="9.26" height="9.26" stroke="black" stroke-width="0.2" stroke-linecap="butt" fill="black"/>
    <rect x="27.78" y="101.85" width="9.26" height="9.26" stroke="black" stroke-width="0.2" stroke-linecap="butt" fill="black"/>
    <rect x="27.78" y="157.41" width="9.26" height="9.26" stroke="black" stroke-width="0.2" stroke-linecap="butt" fill="black"/>
    <rect x="27.78" y="166.67" width="9.26" height="9.26" stroke="black" stroke-width="0.2" stroke-linecap="butt" fill="black"/>
    <rect x="27.78" y="175.93" width="9.26" height="9.26" stroke="black" stroke-width="0.2" stroke-linecap="butt" fill="black"/>
    <rect x="27.78" y="185.19" width="9.26" height="9.26" stroke="black" stroke-width="0.2" stroke-linecap="butt" fill="black"/>
    <rect x="27.78" y="194.44" width="9.26" height="9.26" stroke="black" stroke-width="0.2" stroke-linecap="butt" fill="black"/>
    <rect x="27.78" y="203.70" width="9.26" height="9.26" stroke="black" stroke-width="0.2" stroke-linecap="butt" fill="black"/>
    <rect x="27.78" y="212.96" width="9.26" height="9.26" stroke="black" stroke-width="0.2" stroke-linecap="butt" fill="black"/>
    <rect x="37.04" y="27.78" width="9.26" height="9.26" stroke="black" stroke-width="0.2" stroke-linecap="butt" fill="black"/>
    <rect x="37.04" y="83.33" width="9.26" height="9.26" stroke="black" stroke-width="0.2" stroke-linecap="butt" fill="black"/>
    <rect x="37.04" y="120.37" width="9.26" height="9.26" stroke="black" stroke-width="0.2" stroke-linecap="butt" fill="black"/>
    <rect x="37.04" y="157.41" width="9.26" height="9.26" stroke="black" stroke-width="0.2" stroke-linecap="butt" fill="black"/>
    <rect x="37.04" y="212.96" width="9.26" height="9.26" stroke="black" stroke-width="0.2" stroke-linecap="butt" fill="black"/>
    <rect x="46.30" y="27.78" width="9.26" height="9.26" stroke="black" stroke-width="0.2" stroke-linecap="butt" fill="black"/>
    <rect x="46.30" y="46.30" width="9.26" height="9.26" stroke="black" stroke-width="0.2" stroke-linecap="butt" fill="black"/>
    <rect x="46.30" y="55.56" width="9.26" height="9.26" stroke="black" stroke-width="0.2" stroke-linecap="butt" fill="black"/>
    <rect x="46.30" y="64.81" width="9.26" height="9.26" stroke="black" stroke-width="0.2" stroke-linecap="butt" fill="black"/>
    <rect x="46.30" y="83.33" width="9.26" height="9.26" stroke="black" stroke-width="0.2" stroke-linecap="butt" fill="black"/>
    <rect x="46.30" y="101.85" width="9.26" height="9.26" stroke="black" stroke-width="0.2" stroke-linecap="butt" fill="black"/>
    <rect x="46.30" y="111.11" width="9.26" height="9.26" stroke="black" stroke-width="0.2" stroke-linecap="butt" fill="black"/>
    <rect x="46.30" y="120.37" width="9.26" height="9.26" stroke="black" stroke-width="0.2" stroke-linecap="butt" fill="black"/>
    <rect x="46.30" y="138.89" width="9.26" height="9.26" stroke="black" stroke-width="0.2" stroke-linecap="butt" fill="black"/>
    <rect x="46.30" y="157.41" width="9.26" height="9.26" stroke="black" stroke-width="0.2" stroke-linecap="butt" fill="black"/>
    <rect x="46.30" y="175.93" width="9.26" height="9.26" stroke="black" stroke-width="0.2" stroke-linecap="butt" fill="black"/>
    <rect x="46.30" y="185.19" width="9.26" height="9.26" stroke="black" stroke-width="0.2" stroke-linecap="butt" fill="black"/>
    <rect x="46.30" y="194.44" width="9.26" height="9.26" stroke="black" stroke-width="0.2" stroke-linecap="butt" fill="black"/>
    <rect x="46.30" y="212.96" width="9.26" height="9.26" stroke="black" stroke-width="0.2" stroke-linecap="butt" fill="black"/>
    <rect x="55.56" y="27.78" width="9.26" height="9.26" stroke="black" stroke-width="0.2" stroke-linecap="butt" fill="black"/>
    <rect x="55.56" y="46.30" width="9.26" height="9.26" stroke="black" stroke-width="0.2" stroke-linecap="butt" fill="black"/>
    <rect x="55.56" y="55.56" width="9.26" height="9.26" stroke="black" stroke-width="0.2" stroke-linecap="butt" fill="black"/>
    <rect x="55.56" y="64.81" width="9.26" height="9.26" stroke="black" stroke-width="0.2" stroke-linecap="butt" fill="black"/>
    <rect x="55.56" y="83.33" width="9.26" height="9.26" stroke="black" stroke-width="0.2" stroke-linecap="butt" fill="black"/>
    <rect x="55.56" y="101.85" width="9.26" height="9.26" stroke="black" stroke-width="0.2" stroke-linecap="butt" fill="black"/>
    <rect x="55.56" y="120.37" width="9.26" height="9.26" stroke="black" stroke-width="0.2" stroke-linecap="butt" fill="black"/>
    <rect x="55.56" y="129.63" width="9.26" height="9.26" stroke="black" stroke-width="0.2" stroke-linecap="butt" fill="black"/>
    <rect x="55.56" y="138.89" width="9.26" height="9.26" stroke="black" stroke-width="0.2" stroke-linecap="butt" fill="black"/>
    <rect x="55.56" y="157.41" width="9.26" height="9.26" stroke="black" stroke-width="0.2" stroke-linecap="butt" fill="black"/>
    <rect x="55.56" y="175.93" width="9.26" height="9.26" stroke="black" stroke-width="0.2" stroke-linecap="butt" fill="black"/>
    <rect x="55.56" y="185.19" width="9.26" height="9.26" stroke="black" stroke-width="0.2" stroke-linecap="butt" fill="black"/>
    <rect x="55.56" y="194.44" width="9.26" height="9.26" stroke="black" stroke-width="0.2" stroke-linecap="butt" fill="black"/>
    <rect x="55.56" y="212.96" width="9.26" height="9.26" stroke="black" stroke-width="0.2" stroke-linecap="butt" fill="black"/>
    <rect x="64.81" y="27.78" width="9.26" height="9.26" stroke="black" stroke-width="0.2" stroke-linecap="butt" fill="black"/>
    <rect x="64.81" y="46.30" width="9.26" height="9.26" stroke="black" stroke-width="0.2" stroke-linecap="butt" fill="black"/>
    <rect x="64.81" y="55.56" width="9.26" height="9.26" stroke="black" stroke-width="0.2" stroke-linecap="butt" fill="black"/>
    <rect x="64.81" y="64.81" width="9.26" height="9.26" stroke="black" stroke-width="0.2" stroke-linecap="butt" fill="black"/>
    <rect x="64.81" y="83.33" width="9.26" height="9.26" stroke="black" stroke-width="0.2" stroke-linecap="butt" fill="black"/>
    <rect x="64.81" y="101.85" width="9.26" height="9.26" stroke="black" stroke-width="0.2" stroke-linecap="butt" fill="black"/>
    <rect x="64.81" y="111.11" width="9.26" height="9.26" stroke="black" stroke-width="0.2" stroke-linecap="butt" fill="black"/>
    <rect x="64.81" y="138.89" width="9.26" height="9.26" stroke="black" stroke-width="0.2" stroke-linecap="butt" fill="black"/>
    <rect x="64.81" y="157.41" width="9.26" height="9.26" stroke="black" stroke-width="0.2" stroke-linecap="butt" fill="black"/>
    <rect x="64.81" y="175.93" width="9.26" height="9.26" stroke="black" stroke-width="0.2" stroke-linecap="butt" fill="black"/>
    <rect x="64.81" y="185.19" width="9.26" height="9.26" stroke="black" stroke-width="0.2" stroke-linecap="butt" fill="black"/>
    <rect x="64.81" y="194.44" width="9.26" height="9.26" stroke="black" stroke-width="0.2" stroke-linecap="butt" fill="black"/>
    <rect x="64.81" y="212.96" width="9.26" height="9.26" stroke="black" stroke-width="0.2" stroke-linecap="butt" fill="black"/>
    <rect x="74.07" y="27.78" width="9.26" height="9.26" stroke="black" stroke-width="0.2" stroke-linecap="butt" fill="black"/>
    <rect x="74.07" y="83.33" width="9.26" height="9.26" stroke="black" stroke-width="0.2" stroke-linecap="butt" fill="black"/>
    <rect x="74.07" y="101.85" width="9.26" height="9.26" stroke="black" stroke-width="0.2" stroke-linecap="butt" fill="black"/>
    <rect x="74.07" y="111.11" width="9.26" height="9.26" stroke="black" stroke-width="0.2" stroke-linecap="butt" fill="black"/>
    <rect x="74.07" y="138.89" width="9.26" height="9.26" stroke="black" stroke-width="0.2" stroke-linecap="butt" fill="black"/>
    <rect x="74.07" y="157.41" width="9.26" height="9.26" stroke="black" stroke-width="0.2" stroke-linecap="butt" fill="black"/>
    <rect x="74.07" y="212.96" width="9.26" height="9.26" stroke="black" stroke-width="0.2" stroke-linecap="butt" fill="black"/>
    <rect x="83.33" y="27.78" width="9.26" height="9.26" stroke="black" stroke-width="0.2" stroke-linecap="butt" fill="black"/>
    <rect x="83.33" y="37.04" width="9.26" height="9.26" stroke="black" stroke-width="0.2" stroke-linecap="butt" fill="black"/>
    <rect x="83.33" y="46.30" width="9.26" height="9.26" stroke="black" stroke-width="0.2" stroke-linecap="butt" fill="black"/>
    <rect x="83.33" y="55.56" width="9.26" height="9.26" stroke="black" stroke-width="0.2" stroke-linecap="butt" fill="black"/>
    <rect x="83.33" y="64.81" width="9.26" height="9.26" stroke="black" stroke-width="0.2" stroke-linecap="butt" fill="black"/>
    <rect x="83.33" y="74.07" width="9.26" height="9.26" stroke="black" stroke-width="0.2" stroke-linecap="butt" fill="black"/>
    <rect x="83.33" y="83.33" width="9.26" height="9.26" stroke="black" stroke-width="0.2" stroke-linecap="butt" fill="black"/>
    <rect x="83.33" y="101.85" width="9.26" height="9.26" stroke="black" stroke-width="0.2" stroke-linecap="butt" fill="black"/>
    <rect x="83.33" y="120.37" width="9.26" height="9.26" stroke="black" stroke-width="0.2" stroke-linecap="butt" fill="black"/>
    <rect x="83.33" y="138.89" width="9.26" height="9.26" stroke="black" stroke-width="0.2" stroke-linecap="butt" fill="black"/>
    <rect x="83.33" y="157.41" width="9.26" height="9.26" stroke="black" stroke-width="0.2" stroke-linecap="butt" fill="black"/>
    <rect x="83.33" y="166.67" width="9.26" height="9.26" stroke="black" stroke-width="0.2" stroke-linecap="butt" fill="black"/>
    <rect x="83.33" y="175.93" width="9.26" height="9.26" stroke="black" stroke-width="0.2" stroke-linecap="butt" fill="black"/>
    <rect x="83.33" y="185.19" width="9.26" height="9.26" stroke="black" stroke-width="0.2" stroke-linecap="butt" fill="black"/>
    <rect x="83.33" y="194.44" width="9.26" height="9.26" stroke="black" stroke-width="0.2" stroke-linecap="butt" fill="black"/>
    <rect x="83.33" y="203.70" width="9.26" height="9.26" stroke="black" stroke-width="0.2" stroke-linecap="butt" fill="black"/>
    <rect x="83.33" y="212.96" width="9.26" height="9.26" stroke="black" stroke-width="0.2" stroke-linecap="butt" fill="black"/>
    <rect x="92.59" y="111.11" width="9.26" height="9.26" stroke="black" stroke-width="0.2" stroke-linecap="butt" fill="black"/>
    <rect x="92.59" y="129.63" width="9.26" height="9.26" stroke="black" stroke-width="0.2" stroke-linecap="butt" fill="black"/>
    <rect x="101.85" y="46.30" width="9.26" height="9.26" stroke="black" stroke-width="0.2" stroke-linecap="butt" fill="black"/>
    <rect x="101.85" y="55.56" width="9.26" height="9.26" stroke="black" stroke-width="0.2" stroke-linecap="butt" fill="black"/>
    <rect x="101.85" y="64.81" width="9.26" height="9.26" stroke="black" stroke-width="0.2" stroke-linecap="butt" fill="black"/>
    <rect x="101.85" y="74.07" width="9.26" height="9.26" stroke="black" stroke-width="0.2" stroke-linecap="butt" fill="black"/>
    <rect x="101.85" y="83.33" width="9.26" height="9.26" stroke="black" stroke-width="0.2" stroke-linecap="butt" fill="black"/>
    <rect x="101.85" y="92.59" width="9.26" height="9.26" stroke="black" stroke-width="0.2" stroke-linecap="butt" fill="black"/>
    <rect x="101.85" y="111.11" width="9.26" height="9.26" stroke="black" stroke-width="0.2" stroke-linecap="butt" fill="black"/>
    <rect x="101.85" y="129.63" width="9.26" height="9.26" stroke="black" stroke-width="0.2" stroke-linecap="butt" fill="black"/>
    <rect x="101.85" y="148.15" width="9.26" height="9.26" stroke="black" stroke-width="0.2" stroke-linecap="butt" fill="black"/>
    <rect x="101.85" y="166.67" width="9.26" height="9.26" stroke="black" stroke-width="0.2" stroke-linecap="butt" fill="black"/>
    <rect x="101.85" y="175.93" width="9.26" height="9.26" stroke="black" stroke-width="0.2" stroke-linecap="butt" fill="black"/>
    <rect x="101.85" y="185.19" width="9.26" height="9.26" stroke="black" stroke-width="0.2" stroke-linecap="butt" fill="black"/>
    <rect x="101.85" y="194.44" width="9.26" height="9.26" stroke="black" stroke-width="0.2" stroke-linecap="butt" fill="black"/>
    <rect x="101.85" y="212.96" width="9.26" height="9.26" stroke="black" stroke-width="0.2" stroke-linecap="butt" fill="black"/>
    <rect x="111.11" y="37.04" width="9.26" height="9.26" stroke="black" stroke-width="0.2" stroke-linecap="butt" fill="black"/>
    <rect x="111.11" y="46.30" width="9.26" height="9.26" stroke="black" stroke-width="0.2" stroke-linecap="butt" fill="black"/>
    <rect x="111.11" y="55.56" width="9.26" height="9.26" stroke="black" stroke-width="0.2" stroke-linecap="butt" fill="black"/>
    <rect x="111.11" y="92.59" width="9.26" height="9.26" stroke="black" stroke-width="0.2" stroke-linecap="butt" fill="black"/>
    <rect x="111.11" y="101.85" width="9.26" height="9.26" stroke="black" stroke-width="0.2" stroke-linecap="butt" fill="black"/>
    <rect x="111.11" y="111.11" width="9.26" height="9.26" stroke="black" stroke-width="0.2" stroke-linecap="butt" fill="black"/>
    <rect x="111.11" y="138.89" width="9.26" height="9.26" stroke="black" stroke-width="0.2" stroke-linecap="butt" fill="black"/>
    <rect x="111.11" y="157.41" width="9.26" height="9.26" stroke="black" stroke-width="0.2" stroke-linecap="butt" fill="black"/>
    <rect x="111.11" y="166.67" width="9.26" height="9.26" stroke="black" stroke-width="0.2" stroke-linecap="butt" fill="black"/>
    <rect x="111.11" y="175.93" width="9.26" height="9.26" stroke="black" stroke-width="0.2" stroke-linecap="butt" fill="black"/>
    <rect x="120.37" y="27.78" width="9.26" height="9.26" stroke="black" stroke-width="0.2" stroke-linecap="butt" fill="black"/>
    <rect x="120.37" y="55.56" width="9.26" height="9.26" stroke="black" stroke-width="0.2" stroke-linecap="butt" fill="black"/>
    <rect x="120.37" y="83.33" width="9.26" height="9.26" stroke="black" stroke-width="0.2" stroke-linecap="butt" fill="black"/>
    <rect x="120.37" y="92.59" width="9.26" height="9.26" stroke="black" stroke-width="0.2" stroke-linecap="butt" fill="black"/>
    <rect x="120.37" y="101.85" width="9.26" height="9.26" stroke="black" stroke-width="0.2" stroke-linecap="butt" fill="black"/>
    <rect x="120.37" y="129.63" width="9.26" height="9.26" stroke="black" stroke-width="0.2" stroke-linecap="butt" fill="black"/>
    <rect x="120.37" y="148.15" width="9.26" height="9.26" stroke="black" stroke-width="0.2" stroke-linecap="butt" fill="black"/>
    <rect x="120.37" y="157.41" width="9.26" height="9.26" stroke="black" stroke-width="0.2" stroke-linecap="butt" fill="black"/>
    <rect x="120.37" y="166.67" width="9.26" height="9.26" stroke="black" stroke-width="0.2" stroke-linecap="butt" fill="black"/>
    <rect x="120.37" y="175.93" width="9.26" height="9.26" stroke="black" stroke-width="0.2" stroke-linecap="butt" fill="black"/>
    <rect x="120.37" y="203.70" width="9.26" height="9.26" stroke="black" stroke-width="0.2" stroke-linecap="butt" fill="black"/>
    <rect x="129.63" y="46.30" width="9.26" height="9.26" stroke="black" stroke-width="0.2" stroke-linecap="butt" fill="black"/>
    <rect x="129.63" y="101.85" width="9.26" height="9.26" stroke="black" stroke-width="0.2" stroke-linecap="butt" fill="black"/>
    <rect x="129.63" y="120.37" width="9.26" height="9.26" stroke="black" stroke-width="0.2" stroke-linecap="butt" fill="black"/>
    <rect x="129.63" y="129.63" width="9.26" height="9.26" stroke="black" stroke-width="0.2" stroke-linecap="butt" fill="black"/>
    <rect x="129.63" y="157.41" width="9.26" height="9.26" stroke="black" stroke-width="0.2" stroke-linecap="butt" fill="black"/>
    <rect x="129.63" y="175.93" width="9.26" height="9.26" stroke="black" stroke-width="0.2" stroke-linecap="butt" fill="black"/>
    <rect x="138.89" y="27.78" width="9.26" height="9.26" stroke="black" stroke-width="0.2" stroke-linecap="butt" fill="black"/>
    <rect x="138.89" y="37.04" width="9.26" height="9.26" stroke="black" stroke-width="0.2" stroke-linecap="butt" fill="black"/>
    <rect x="138.89" y="46.30" width="9.26" height="9.26" stroke="black" stroke-width="0.2" stroke-linecap="butt" fill="black"/>
    <rect x="138.89" y="64.81" width="9.26" height="9.26" stroke="black" stroke-width="0.2" stroke-linecap="butt" fill="black"/>
    <rect x="138.89" y="74.07" width="9.26" height="9.26" stroke="black" stroke-width="0.2" stroke-linecap="butt" fill="black"/>
    <rect x="138.89" y="83.33" width="9.26" height="9.26" stroke="black" stroke-width="0.2" stroke-linecap="butt" fill="black"/>
    <rect x="138.89" y="120.37" width="9.26" height="9.26" stroke="black" stroke-width="0.2" stroke-linecap="butt" fill="black"/>
    <rect x="138.89" y="129.63" width="9.26" height="9.26" stroke="black" stroke-width="0.2" stroke-linecap="butt" fill="black"/>
    <rect x="138.89" y="157.41" width="9.26" height="9.26" stroke="black" stroke-width="0.2" stroke-linecap="butt" fill="black"/>
    <rect x="138.89" y="194.44" width="9.26" height="9.26" stroke="black" stroke-width="0.2" stroke-linecap="butt" fill="black"/>
    <rect x="138.89" y="212.96" width="9.26" height="9.26" stroke="black" stroke-width="0.2" stroke-linecap="butt" fill="black"/>
    <rect x="148.15" y="129.63" width="9.26" height="9.26" stroke="black" stroke-width="0.2" stroke-linecap="butt" fill="black"/>
    <rect x="148.15" y="148.15" width="9.26" height="9.26" stroke="black" stroke-width="0.2" stroke-linecap="butt" fill="black"/>
    <rect x="148.15" y="157.41" width="9.26" height="9.26" stroke="black" stroke-width="0.2" stroke-linecap="butt" fill="black"/>
    <rect x="148.15" y="166.67" width="9.26" height="9.26" stroke="black" stroke-width="0.2" stroke-linecap="butt" fill="black"/>
    <rect x="148.15" y="175.93" width="9.26" height="9.26" stroke="black" stroke-width="0.2" stroke-linecap="butt" fill="black"/>
    <rect x="148.15" y="203.70" width="9.26" height="9.26" stroke="black" stroke-width="0.2" stroke-linecap="butt" fill="black"/>
    <rect x="157.41" y="27.78" width="9.26" height="9.26" stroke="black" stroke-width="0.2" stroke-linecap="butt" fill="black"/>
    <rect x="157.41" y="37.04" width="9.26" height="9.26" stroke="black" stroke-width="0.2" stroke-linecap="butt" fill="black"/>
    <rect x="157.41" y="46.30" width="9.26" height="9.26" stroke="black" stroke-width="0.2" stroke-linecap="butt" fill="black"/>
    <rect x="157.41" y="55.56" width="9.26" height="9.26" stroke="black" stroke-width="0.2" stroke-linecap="butt" fill="black"/>
    <rect x="157.41" y="64.81" width="9.26" height="9.26" stroke="black" stroke-width="0.2" stroke-linecap="butt" fill="black"/>
    <rect x="157.41" y="74.07" width="9.26" height="9.26" stroke="black" stroke-width="0.2" stroke-linecap="butt" fill="black"/>
    <rect x="157.41" y="83.33" width="9.26" height="9.26" stroke="black" stroke-width="0.2" stroke-linecap="butt" fill="black"/>
    <rect x="157.41" y="101.85" width="9.26" height="9.26" stroke="black" stroke-width="0.2" stroke-linecap="butt" fill="black"/>
    <rect x="157.41" y="111.11" width="9.26" height="9.26" stroke="black" stroke-width="0.2" stroke-linecap="butt" fill="black"/>
    <rect x="157.41" y="138.89" width="9.26" height="9.26" stroke="black" stroke-width="0.2" stroke-linecap="butt" fill="black"/>
    <rect x="157.41" y="175.93" width="9.26" height="9.26" stroke="black" stroke-width="0.2" stroke-linecap="butt" fill="black"/>
    <rect x="157.41" y="185.19" width="9.26" height="9.26" stroke="black" stroke-width="0.2" stroke-linecap="butt" fill="black"/>
    <rect x="157.41" y="212.96" width="9.26" height="9.26" stroke="black" stroke-width="0.2" stroke-linecap="butt" fill="black"/>
    <rect x="166.67" y="27.78" width="9.26" height="9.26" stroke="black" stroke-width="0.2" stroke-linecap="butt" fill="black"/>
    <rect x="166.67" y="83.33" width="9.26" height="9.26" stroke="black" stroke-width="0.2" stroke-linecap="butt" fill="black"/>
    <rect x="166.67" y="101.85" width="9.26" height="9.26" stroke="black" stroke-width="0.2" stroke-linecap="butt" fill="black"/>
    <rect x="166.67" y="111.11" width="9.26" height="9.26" stroke="black" stroke-width="0.2" stroke-linecap="butt" fill="black"/>
    <rect x="166.67" y="148.15" width="9.26" height="9.26" stroke="black" stroke-width="0.2" stroke-linecap="butt" fill="black"/>
    <rect x="166.67" y="157.41" width="9.26" height="9.26" stroke="black" stroke-width="0.2" stroke-linecap="butt" fill="black"/>
    <rect x="166.67" y="185.19" width="9.26" height="9.26" stroke="black" stroke-width="0.2" stroke-linecap="butt" fill="black"/>
    <rect x="166.67" y="194.44" width="9.26" height="9.26" stroke="black" stroke-width="0.2" stroke-linecap="butt" fill="black"/>
    <rect x="166.67" y="203.70" width="9.26" height="9.26" stroke="black" stroke-width="0.2" stroke-linecap="butt" fill="black"/>
    <rect x="166.67" y="212.96" width="9.26" height="9.26" stroke="black" stroke-width="0.2" stroke-linecap="butt" fill="black"/>
    <rect x="175.93" y="27.78" width="9.26" height="9.26" stroke="black" stroke-width="0.2" stroke-linecap="butt" fill="black"/>
    <rect x="175.93" y="46.30" width="9.26" height="9.26" stroke="black" stroke-width="0.2" stroke-linecap="butt" fill="black"/>
    <rect x="175.93" y="55.56" width="9.26" height="9.26" stroke="black" stroke-width="0.2" stroke-linecap="butt" fill="black"/>
    <rect x="175.93" y="64.81" width="9.26" height="9.26" stroke="black" stroke-width="0.2" stroke-linecap="butt" fill="black"/>
    <rect x="175.93" y="83.33" width="9.26" height="9.26" stroke="black" stroke-width="0.2" stroke-linecap="butt" fill="black"/>
    <rect x="175.93" y="101.85" width="9.26" height="9.26" stroke="black" stroke-width="0.2" stroke-linecap="butt" fill="black"/>
    <rect x="175.93" y="111.11" width="9.26" height="9.26" stroke="black" stroke-width="0.2" stroke-linecap="butt" fill="black"/>
    <rect x="175.93" y="129.63" width="9.26" height="9.26" stroke="black" stroke-width="0.2" stroke-linecap="butt" fill="black"/>
    <rect x="175.93" y="138.89" width="9.26" height="9.26" stroke="black" stroke-width="0.2" stroke-linecap="butt" fill="black"/>
    <rect x="175.93" y="148.15" width="9.26" height="9.26" stroke="black" stroke-width="0.2" stroke-linecap="butt" fill="black"/>
    <rect x="175.93" y="166.67" width="9.26" height="9.26" stroke="black" stroke-width="0.2" stroke-linecap="butt" fill="black"/>
    <rect x="175.93" y="175.93" width="9.26" height="9.26" stroke="black" stroke-width="0.2" stroke-linecap="butt" fill="black"/>
    <rect x="175.93" y="185.19" width="9.26" height="9.26" stroke="black" stroke-width="0.2" stroke-linecap="butt" fill="black"/>
    <rect x="175.93" y="203.70" width="9.26" height="9.26" stroke="black" stroke-width="0.2" stroke-linecap="butt" fill="black"/>
    <rect x="175.93" y="212.96" width="9.26" height="9.26" stroke="black" stroke-width="0.2" stroke-linecap="butt" fill="black"/>
    <rect x="185.19" y="27.78" width="9.26" height="9.26" stroke="black" stroke-width="0.2" stroke-linecap="butt" fill="black"/>
    <rect x="185.19" y="46.30" width="9.26" height="9.26" stroke="black" stroke-width="0.2" stroke-linecap="butt" fill="black"/>
    <rect x="185.19" y="55.56" width="9.26" height="9.26" stroke="black" stroke-width="0.2" stroke-linecap="butt" fill="black"/>
    <rect x="185.19" y="64.81" width="9.26" height="9.26" stroke="black" stroke-width="0.2" stroke-linecap="butt" fill="black"/>
    <rect x="185.19" y="83.33" width="9.26" height="9.26" stroke="black" stroke-width="0.2" stroke-linecap="butt" fill="black"/>
    <rect x="185.19" y="101.85" width="9.26" height="9.26" stroke="black" stroke-width="0.2" stroke-linecap="butt" fill="black"/>
    <rect x="185.19" y="111.11" width="9.26" height="9.26" stroke="black" stroke-width="0.2" stroke-linecap="butt" fill="black"/>
    <rect x="185.19" y="129.63" width="9.26" height="9.26" stroke="black" stroke-width="0.2" stroke-linecap="butt" fill="black"/>
    <rect x="185.19" y="138.89" width="9.26" height="9.26" stroke="black" stroke-width="0.2" stroke-linecap="butt" fill="black"/>
    <rect x="185.19" y="148.15" width="9.26" height="9.26" stroke="black" stroke-width="0.2" stroke-linecap="butt" fill="black"/>
    <rect x="185.19" y="166.67" width="9.26" height="9.26" stroke="black" stroke-width="0.2" stroke-linecap="butt" fill="black"/>
    <rect x="185.19" y="175.93" width="9.26" height="9.26" stroke="black" stroke-width="0.2" stroke-linecap="butt" fill="black"/>
    <rect x="185.19" y="212.96" width="9.26" height="9.26" stroke="black" stroke-width="0.2" stroke-linecap="butt" fill="black"/>
    <rect x="194.44" y="27.78" width="9.26" height="9.26" stroke="black" stroke-width="0.2" stroke-linecap="butt" fill="black"/>
    <rect x="194.44" y="46.30" width="9.26" height="9.26" stroke="black" stroke-width="0.2" stroke-linecap="butt" fill="black"/>
    <rect x="194.44" y="55.56" width="9.26" height="9.26" stroke="black" stroke-width="0.2" stroke-linecap="butt" fill="black"/>
    <rect x="194.44" y="64.81" width="9.26" height="9.26" stroke="black" stroke-width="0.2" stroke-linecap="butt" fill="black"/>
    <rect x="194.44" y="83.33" width="9.26" height="9.26" stroke="black" stroke-width="0.2" stroke-linecap="butt" fill="black"/>
    <rect x="194.44" y="101.85" width="9.26" height="9.26" stroke="black" stroke-width="0.2" stroke-linecap="butt" fill="black"/>
    <rect x="194.44" y="111.11" width="9.26" height="9.26" stroke="black" stroke-width="0.2" stroke-linecap="butt" fill="black"/>
    <rect x="194.44" y="120.37" width="9.26" height="9.26" stroke="black" stroke-width="0.2" stroke-linecap="butt" fill="black"/>
    <rect x="194.44" y="129.63" width="9.26" height="9.26" stroke="black" stroke-width="0.2" stroke-linecap="butt" fill="black"/>
    <rect x="194.44" y="148.15" width="9.26" height="9.26" stroke="black" stroke-width="0.2" stroke-linecap="butt" fill="black"/>
    <rect x="194.44" y="157.41" width="9.26" height="9.26" stroke="black" stroke-width="0.2" stroke-linecap="butt" fill="black"/>
    <rect x="194.44" y="166.67" width="9.26" height="9.26" stroke="black" stroke-width="0.2" stroke-linecap="butt" fill="black"/>
    <rect x="194.44" y="185.19" width="9.26" height="9.26" stroke="black" stroke-width="0.2" stroke-linecap="butt" fill="black"/>
    <rect x="194.44" y="194.44" width="9.26" height="9.26" stroke="black" stroke-width="0.2" stroke-linecap="butt" fill="black"/>
    <rect x="194.44" y="203.70" width="9.26" height="9.26" stroke="black" stroke-width="0.2" stroke-linecap="butt" fill="black"/>
    <rect x="203.70" y="27.78" width="9.26" height="9.26" stroke="black" stroke-width="0.2" stroke-linecap="butt" fill="black"/>
    <rect x="203.70" y="83.33" width="9.26" height="9.26" stroke="black" stroke-width="0.2" stroke-linecap="butt" fill="black"/>
    <rect x="203.70" y="111.11" width="9.26" height="9.26" stroke="black" stroke-width="0.2" stroke-linecap="butt" fill="black"/>
    <rect x="203.70" y="120.37" width="9.26" height="9.26" stroke="black" stroke-width="0.2" stroke-linecap="butt" fill="black"/>
    <rect x="203.70" y="157.41" width="9.26" height="9.26" stroke="black" stroke-width="0.2" stroke-linecap="butt" fill="black"/>
    <rect x="203.70" y="175.93" width="9.26" height="9.26" stroke="black" stroke-width="0.2" stroke-linecap="butt" fill="black"/>
    <rect x="203.70" y="212.96" width="9.26" height="9.26" stroke="black" stroke-width="0.2" stroke-linecap="butt" fill="black"/>
    <rect x="212.96" y="27.78" width="9.26" height="9.26" stroke="black" stroke-width="0.2" stroke-linecap="butt" fill="black"/>
    <rect x="212.96" y="37.04" width="9.26" height="9.26" stroke="black" stroke-width="0.2" stroke-linecap="butt" fill="black"/>
    <rect x="212.96" y="46.30" width="9.26" height="9.26" stroke="black" stroke-width="0.2" stroke-linecap="butt" fill="black"/>
    <rect x="212.96" y="55.56" width="9.26" height="9.26" stroke="black" stroke-width="0.2" stroke-linecap="butt" fill="black"/>
    <rect x="212.96" y="64.81" width="9.26" height="9.26" stroke="black" stroke-width="0.2" stroke-linecap="butt" fill="black"/>
    <rect x="212.96" y="74.07" width="9.26" height="9.26" stroke="black" stroke-width="0.2" stroke-linecap="butt" fill="black"/>
    <rect x="212.96" y="83.33" width="9.26" height="9.26" stroke="black" stroke-width="0.2" stroke-linecap="butt" fill="black"/>
    <rect x="212.96" y="111.11" width="9.26" height="9.26" stroke="black" stroke-width="0.2" stroke-linecap="butt" fill="black"/>
    <rect x="212.96" y="138.89" width="9.26" height="9.26" stroke="black" stroke-width="0.2" stroke-linecap="butt" fill="black"/>
    <rect x="212.96" y="148.15" width="9.26" height="9.26" stroke="black" stroke-width="0.2" stroke-linecap="butt" fill="black"/>
    <rect x="212.96" y="166.67" width="9.26" height="9.26" stroke="black" stroke-width="0.2" stroke-linecap="butt" fill="black"/>
    <rect x="212.96" y="175.93" width="9.26" height="9.26" stroke="black" stroke-width="0.2" stroke-linecap="butt" fill="black"/>
  </g>
</svg>
