<svg xmlns="http://www.w3.org/2000/svg" xmlns:xlink="http://www.w3.org/1999/xlink" width="350" height="350"><g id="qrcode:https://r-pkgs.org"><rect width="350" height="350" x="0" y="0" style="fill:#fff"/><rect width="11.29" height="11.29" x="33.87" y="33.87" fill="#000" stroke="#000" stroke-linecap="butt" stroke-width=".2"/><rect width="11.29" height="11.29" x="33.87" y="45.16" fill="#000" stroke="#000" stroke-linecap="butt" stroke-width=".2"/><rect width="11.29" height="11.29" x="33.87" y="56.45" fill="#000" stroke="#000" stroke-linecap="butt" stroke-width=".2"/><rect width="11.29" height="11.29" x="33.87" y="67.74" fill="#000" stroke="#000" stroke-linecap="butt" stroke-width=".2"/><rect width="11.29" height="11.29" x="33.87" y="79.03" fill="#000" stroke="#000" stroke-linecap="butt" stroke-width=".2"/><rect width="11.29" height="11.29" x="33.87" y="90.32" fill="#000" stroke="#000" stroke-linecap="butt" stroke-width=".2"/><rect width="11.29" height="11.29" x="33.87" y="101.61" fill="#000" stroke="#000" stroke-linecap="butt" stroke-width=".2"/><rect width="11.29" height="11.29" x="33.87" y="124.19" fill="#000" stroke="#000" stroke-linecap="butt" stroke-width=".2"/><rect width="11.29" height="11.29" x="33.87" y="158.06" fill="#000" stroke="#000" stroke-linecap="butt" stroke-width=".2"/><rect width="11.29" height="11.29" x="33.87" y="169.35" fill="#000" stroke="#000" stroke-linecap="butt" stroke-width=".2"/><rect width="11.29" height="11.29" x="33.87" y="180.65" fill="#000" stroke="#000" stroke-linecap="butt" stroke-width=".2"/><rect width="11.29" height="11.29" x="33.87" y="191.94" fill="#000" stroke="#000" stroke-linecap="butt" stroke-width=".2"/><rect width="11.29" height="11.29" x="33.87" y="203.23" fill="#000" stroke="#000" stroke-linecap="butt" stroke-width=".2"/><rect width="11.29" height="11.29" x="33.87" y="214.52" fill="#000" stroke="#000" stroke-linecap="butt" stroke-width=".2"/><rect width="11.29" height="11.29" x="33.87" y="237.1" fill="#000" stroke="#000" stroke-linecap="butt" stroke-width=".2"/><rect width="11.29" height="11.29" x="33.87" y="248.39" fill="#000" stroke="#000" stroke-linecap="butt" stroke-width=".2"/><rect width="11.29" height="11.29" x="33.87" y="259.68" fill="#000" stroke="#000" stroke-linecap="butt" stroke-width=".2"/><rect width="11.29" height="11.29" x="33.87" y="270.97" fill="#000" stroke="#000" stroke-linecap="butt" stroke-width=".2"/><rect width="11.29" height="11.29" x="33.87" y="282.26" fill="#000" stroke="#000" stroke-linecap="butt" stroke-width=".2"/><rect width="11.29" height="11.29" x="33.87" y="293.55" fill="#000" stroke="#000" stroke-linecap="butt" stroke-width=".2"/><rect width="11.29" height="11.29" x="33.87" y="304.84" fill="#000" stroke="#000" stroke-linecap="butt" stroke-width=".2"/><rect width="11.29" height="11.29" x="45.16" y="33.87" fill="#000" stroke="#000" stroke-linecap="butt" stroke-width=".2"/><rect width="11.29" height="11.29" x="45.16" y="101.61" fill="#000" stroke="#000" stroke-linecap="butt" stroke-width=".2"/><rect width="11.29" height="11.29" x="45.16" y="180.65" fill="#000" stroke="#000" stroke-linecap="butt" stroke-width=".2"/><rect width="11.29" height="11.29" x="45.16" y="237.1" fill="#000" stroke="#000" stroke-linecap="butt" stroke-width=".2"/><rect width="11.29" height="11.29" x="45.16" y="304.84" fill="#000" stroke="#000" stroke-linecap="butt" stroke-width=".2"/><rect width="11.29" height="11.29" x="56.45" y="33.87" fill="#000" stroke="#000" stroke-linecap="butt" stroke-width=".2"/><rect width="11.29" height="11.29" x="56.45" y="56.45" fill="#000" stroke="#000" stroke-linecap="butt" stroke-width=".2"/><rect width="11.29" height="11.29" x="56.45" y="67.74" fill="#000" stroke="#000" stroke-linecap="butt" stroke-width=".2"/><rect width="11.29" height="11.29" x="56.45" y="79.03" fill="#000" stroke="#000" stroke-linecap="butt" stroke-width=".2"/><rect width="11.29" height="11.29" x="56.45" y="101.61" fill="#000" stroke="#000" stroke-linecap="butt" stroke-width=".2"/><rect width="11.29" height="11.29" x="56.45" y="124.19" fill="#000" stroke="#000" stroke-linecap="butt" stroke-width=".2"/><rect width="11.29" height="11.29" x="56.45" y="135.48" fill="#000" stroke="#000" stroke-linecap="butt" stroke-width=".2"/><rect width="11.29" height="11.29" x="56.45" y="158.06" fill="#000" stroke="#000" stroke-linecap="butt" stroke-width=".2"/><rect width="11.29" height="11.29" x="56.45" y="169.35" fill="#000" stroke="#000" stroke-linecap="butt" stroke-width=".2"/><rect width="11.29" height="11.29" x="56.45" y="180.65" fill="#000" stroke="#000" stroke-linecap="butt" stroke-width=".2"/><rect width="11.29" height="11.29" x="56.45" y="203.23" fill="#000" stroke="#000" stroke-linecap="butt" stroke-width=".2"/><rect width="11.29" height="11.29" x="56.45" y="237.1" fill="#000" stroke="#000" stroke-linecap="butt" stroke-width=".2"/><rect width="11.29" height="11.29" x="56.45" y="259.68" fill="#000" stroke="#000" stroke-linecap="butt" stroke-width=".2"/><rect width="11.29" height="11.29" x="56.45" y="270.97" fill="#000" stroke="#000" stroke-linecap="butt" stroke-width=".2"/><rect width="11.29" height="11.29" x="56.45" y="282.26" fill="#000" stroke="#000" stroke-linecap="butt" stroke-width=".2"/><rect width="11.29" height="11.29" x="56.45" y="304.84" fill="#000" stroke="#000" stroke-linecap="butt" stroke-width=".2"/><rect width="11.29" height="11.29" x="67.74" y="33.87" fill="#000" stroke="#000" stroke-linecap="butt" stroke-width=".2"/><rect width="11.29" height="11.29" x="67.74" y="56.45" fill="#000" stroke="#000" stroke-linecap="butt" stroke-width=".2"/><rect width="11.29" height="11.29" x="67.74" y="67.74" fill="#000" stroke="#000" stroke-linecap="butt" stroke-width=".2"/><rect width="11.29" height="11.29" x="67.74" y="79.03" fill="#000" stroke="#000" stroke-linecap="butt" stroke-width=".2"/><rect width="11.29" height="11.29" x="67.74" y="101.61" fill="#000" stroke="#000" stroke-linecap="butt" stroke-width=".2"/><rect width="11.29" height="11.29" x="67.74" y="124.19" fill="#000" stroke="#000" stroke-linecap="butt" stroke-width=".2"/><rect width="11.29" height="11.29" x="67.74" y="135.48" fill="#000" stroke="#000" stroke-linecap="butt" stroke-width=".2"/><rect width="11.29" height="11.29" x="67.74" y="146.77" fill="#000" stroke="#000" stroke-linecap="butt" stroke-width=".2"/><rect width="11.29" height="11.29" x="67.74" y="180.65" fill="#000" stroke="#000" stroke-linecap="butt" stroke-width=".2"/><rect width="11.29" height="11.29" x="67.74" y="237.1" fill="#000" stroke="#000" stroke-linecap="butt" stroke-width=".2"/><rect width="11.29" height="11.29" x="67.74" y="259.68" fill="#000" stroke="#000" stroke-linecap="butt" stroke-width=".2"/><rect width="11.29" height="11.29" x="67.74" y="270.97" fill="#000" stroke="#000" stroke-linecap="butt" stroke-width=".2"/><rect width="11.29" height="11.29" x="67.74" y="282.26" fill="#000" stroke="#000" stroke-linecap="butt" stroke-width=".2"/><rect width="11.29" height="11.29" x="67.74" y="304.84" fill="#000" stroke="#000" stroke-linecap="butt" stroke-width=".2"/><rect width="11.29" height="11.29" x="79.03" y="33.87" fill="#000" stroke="#000" stroke-linecap="butt" stroke-width=".2"/><rect width="11.29" height="11.29" x="79.03" y="56.45" fill="#000" stroke="#000" stroke-linecap="butt" stroke-width=".2"/><rect width="11.29" height="11.29" x="79.03" y="67.74" fill="#000" stroke="#000" stroke-linecap="butt" stroke-width=".2"/><rect width="11.29" height="11.29" x="79.03" y="79.03" fill="#000" stroke="#000" stroke-linecap="butt" stroke-width=".2"/><rect width="11.29" height="11.29" x="79.03" y="101.61" fill="#000" stroke="#000" stroke-linecap="butt" stroke-width=".2"/><rect width="11.29" height="11.29" x="79.03" y="124.19" fill="#000" stroke="#000" stroke-linecap="butt" stroke-width=".2"/><rect width="11.29" height="11.29" x="79.03" y="158.06" fill="#000" stroke="#000" stroke-linecap="butt" stroke-width=".2"/><rect width="11.29" height="11.29" x="79.03" y="180.65" fill="#000" stroke="#000" stroke-linecap="butt" stroke-width=".2"/><rect width="11.29" height="11.29" x="79.03" y="214.52" fill="#000" stroke="#000" stroke-linecap="butt" stroke-width=".2"/><rect width="11.29" height="11.29" x="79.03" y="237.1" fill="#000" stroke="#000" stroke-linecap="butt" stroke-width=".2"/><rect width="11.29" height="11.29" x="79.03" y="259.68" fill="#000" stroke="#000" stroke-linecap="butt" stroke-width=".2"/><rect width="11.29" height="11.29" x="79.03" y="270.97" fill="#000" stroke="#000" stroke-linecap="butt" stroke-width=".2"/><rect width="11.29" height="11.29" x="79.03" y="282.26" fill="#000" stroke="#000" stroke-linecap="butt" stroke-width=".2"/><rect width="11.29" height="11.29" x="79.03" y="304.84" fill="#000" stroke="#000" stroke-linecap="butt" stroke-width=".2"/><rect width="11.29" height="11.29" x="90.32" y="33.87" fill="#000" stroke="#000" stroke-linecap="butt" stroke-width=".2"/><rect width="11.29" height="11.29" x="90.32" y="101.61" fill="#000" stroke="#000" stroke-linecap="butt" stroke-width=".2"/><rect width="11.29" height="11.29" x="90.32" y="124.19" fill="#000" stroke="#000" stroke-linecap="butt" stroke-width=".2"/><rect width="11.29" height="11.29" x="90.32" y="135.48" fill="#000" stroke="#000" stroke-linecap="butt" stroke-width=".2"/><rect width="11.29" height="11.29" x="90.32" y="191.94" fill="#000" stroke="#000" stroke-linecap="butt" stroke-width=".2"/><rect width="11.29" height="11.29" x="90.32" y="214.52" fill="#000" stroke="#000" stroke-linecap="butt" stroke-width=".2"/><rect width="11.29" height="11.29" x="90.32" y="237.1" fill="#000" stroke="#000" stroke-linecap="butt" stroke-width=".2"/><rect width="11.29" height="11.29" x="90.32" y="304.84" fill="#000" stroke="#000" stroke-linecap="butt" stroke-width=".2"/><rect width="11.29" height="11.29" x="101.61" y="33.87" fill="#000" stroke="#000" stroke-linecap="butt" stroke-width=".2"/><rect width="11.29" height="11.29" x="101.61" y="45.16" fill="#000" stroke="#000" stroke-linecap="butt" stroke-width=".2"/><rect width="11.29" height="11.29" x="101.61" y="56.45" fill="#000" stroke="#000" stroke-linecap="butt" stroke-width=".2"/><rect width="11.29" height="11.29" x="101.61" y="67.74" fill="#000" stroke="#000" stroke-linecap="butt" stroke-width=".2"/><rect width="11.29" height="11.29" x="101.61" y="79.03" fill="#000" stroke="#000" stroke-linecap="butt" stroke-width=".2"/><rect width="11.29" height="11.29" x="101.61" y="90.32" fill="#000" stroke="#000" stroke-linecap="butt" stroke-width=".2"/><rect width="11.29" height="11.29" x="101.61" y="101.61" fill="#000" stroke="#000" stroke-linecap="butt" stroke-width=".2"/><rect width="11.29" height="11.29" x="101.61" y="124.19" fill="#000" stroke="#000" stroke-linecap="butt" stroke-width=".2"/><rect width="11.29" height="11.29" x="101.61" y="146.77" fill="#000" stroke="#000" stroke-linecap="butt" stroke-width=".2"/><rect width="11.29" height="11.29" x="101.61" y="169.35" fill="#000" stroke="#000" stroke-linecap="butt" stroke-width=".2"/><rect width="11.29" height="11.29" x="101.61" y="191.94" fill="#000" stroke="#000" stroke-linecap="butt" stroke-width=".2"/><rect width="11.29" height="11.29" x="101.61" y="214.52" fill="#000" stroke="#000" stroke-linecap="butt" stroke-width=".2"/><rect width="11.29" height="11.29" x="101.61" y="237.1" fill="#000" stroke="#000" stroke-linecap="butt" stroke-width=".2"/><rect width="11.29" height="11.29" x="101.61" y="248.39" fill="#000" stroke="#000" stroke-linecap="butt" stroke-width=".2"/><rect width="11.29" height="11.29" x="101.61" y="259.68" fill="#000" stroke="#000" stroke-linecap="butt" stroke-width=".2"/><rect width="11.29" height="11.29" x="101.61" y="270.97" fill="#000" stroke="#000" stroke-linecap="butt" stroke-width=".2"/><rect width="11.29" height="11.29" x="101.61" y="282.26" fill="#000" stroke="#000" stroke-linecap="butt" stroke-width=".2"/><rect width="11.29" height="11.29" x="101.61" y="293.55" fill="#000" stroke="#000" stroke-linecap="butt" stroke-width=".2"/><rect width="11.29" height="11.29" x="101.61" y="304.84" fill="#000" stroke="#000" stroke-linecap="butt" stroke-width=".2"/><rect width="11.29" height="11.29" x="112.9" y="169.35" fill="#000" stroke="#000" stroke-linecap="butt" stroke-width=".2"/><rect width="11.29" height="11.29" x="112.9" y="203.23" fill="#000" stroke="#000" stroke-linecap="butt" stroke-width=".2"/><rect width="11.29" height="11.29" x="112.9" y="214.52" fill="#000" stroke="#000" stroke-linecap="butt" stroke-width=".2"/><rect width="11.29" height="11.29" x="124.19" y="56.45" fill="#000" stroke="#000" stroke-linecap="butt" stroke-width=".2"/><rect width="11.29" height="11.29" x="124.19" y="67.74" fill="#000" stroke="#000" stroke-linecap="butt" stroke-width=".2"/><rect width="11.29" height="11.29" x="124.19" y="79.03" fill="#000" stroke="#000" stroke-linecap="butt" stroke-width=".2"/><rect width="11.29" height="11.29" x="124.19" y="90.32" fill="#000" stroke="#000" stroke-linecap="butt" stroke-width=".2"/><rect width="11.29" height="11.29" x="124.19" y="101.61" fill="#000" stroke="#000" stroke-linecap="butt" stroke-width=".2"/><rect width="11.29" height="11.29" x="124.19" y="112.9" fill="#000" stroke="#000" stroke-linecap="butt" stroke-width=".2"/><rect width="11.29" height="11.29" x="124.19" y="135.48" fill="#000" stroke="#000" stroke-linecap="butt" stroke-width=".2"/><rect width="11.29" height="11.29" x="124.19" y="158.06" fill="#000" stroke="#000" stroke-linecap="butt" stroke-width=".2"/><rect width="11.29" height="11.29" x="124.19" y="169.35" fill="#000" stroke="#000" stroke-linecap="butt" stroke-width=".2"/><rect width="11.29" height="11.29" x="124.19" y="191.94" fill="#000" stroke="#000" stroke-linecap="butt" stroke-width=".2"/><rect width="11.29" height="11.29" x="124.19" y="225.81" fill="#000" stroke="#000" stroke-linecap="butt" stroke-width=".2"/><rect width="11.29" height="11.29" x="124.19" y="248.39" fill="#000" stroke="#000" stroke-linecap="butt" stroke-width=".2"/><rect width="11.29" height="11.29" x="124.19" y="259.68" fill="#000" stroke="#000" stroke-linecap="butt" stroke-width=".2"/><rect width="11.29" height="11.29" x="124.19" y="270.97" fill="#000" stroke="#000" stroke-linecap="butt" stroke-width=".2"/><rect width="11.29" height="11.29" x="124.19" y="282.26" fill="#000" stroke="#000" stroke-linecap="butt" stroke-width=".2"/><rect width="11.29" height="11.29" x="124.19" y="304.84" fill="#000" stroke="#000" stroke-linecap="butt" stroke-width=".2"/><rect width="11.29" height="11.29" x="135.48" y="33.87" fill="#000" stroke="#000" stroke-linecap="butt" stroke-width=".2"/><rect width="11.29" height="11.29" x="135.48" y="45.16" fill="#000" stroke="#000" stroke-linecap="butt" stroke-width=".2"/><rect width="11.29" height="11.29" x="135.48" y="56.45" fill="#000" stroke="#000" stroke-linecap="butt" stroke-width=".2"/><rect width="11.29" height="11.29" x="135.48" y="67.74" fill="#000" stroke="#000" stroke-linecap="butt" stroke-width=".2"/><rect width="11.29" height="11.29" x="135.48" y="79.03" fill="#000" stroke="#000" stroke-linecap="butt" stroke-width=".2"/><rect width="11.29" height="11.29" x="135.48" y="90.32" fill="#000" stroke="#000" stroke-linecap="butt" stroke-width=".2"/><rect width="11.29" height="11.29" x="135.48" y="135.48" fill="#000" stroke="#000" stroke-linecap="butt" stroke-width=".2"/><rect width="11.29" height="11.29" x="135.48" y="169.35" fill="#000" stroke="#000" stroke-linecap="butt" stroke-width=".2"/><rect width="11.29" height="11.29" x="135.48" y="180.65" fill="#000" stroke="#000" stroke-linecap="butt" stroke-width=".2"/><rect width="11.29" height="11.29" x="135.48" y="191.94" fill="#000" stroke="#000" stroke-linecap="butt" stroke-width=".2"/><rect width="11.29" height="11.29" x="135.48" y="225.81" fill="#000" stroke="#000" stroke-linecap="butt" stroke-width=".2"/><rect width="11.29" height="11.29" x="135.48" y="237.1" fill="#000" stroke="#000" stroke-linecap="butt" stroke-width=".2"/><rect width="11.29" height="11.29" x="135.48" y="248.39" fill="#000" stroke="#000" stroke-linecap="butt" stroke-width=".2"/><rect width="11.29" height="11.29" x="135.48" y="259.68" fill="#000" stroke="#000" stroke-linecap="butt" stroke-width=".2"/><rect width="11.29" height="11.29" x="135.48" y="282.26" fill="#000" stroke="#000" stroke-linecap="butt" stroke-width=".2"/><rect width="11.29" height="11.29" x="135.48" y="293.55" fill="#000" stroke="#000" stroke-linecap="butt" stroke-width=".2"/><rect width="11.29" height="11.29" x="146.77" y="90.32" fill="#000" stroke="#000" stroke-linecap="butt" stroke-width=".2"/><rect width="11.29" height="11.29" x="146.77" y="101.61" fill="#000" stroke="#000" stroke-linecap="butt" stroke-width=".2"/><rect width="11.29" height="11.29" x="146.77" y="124.19" fill="#000" stroke="#000" stroke-linecap="butt" stroke-width=".2"/><rect width="11.29" height="11.29" x="146.77" y="169.35" fill="#000" stroke="#000" stroke-linecap="butt" stroke-width=".2"/><rect width="11.29" height="11.29" x="146.77" y="191.94" fill="#000" stroke="#000" stroke-linecap="butt" stroke-width=".2"/><rect width="11.29" height="11.29" x="146.77" y="225.81" fill="#000" stroke="#000" stroke-linecap="butt" stroke-width=".2"/><rect width="11.29" height="11.29" x="146.77" y="237.1" fill="#000" stroke="#000" stroke-linecap="butt" stroke-width=".2"/><rect width="11.29" height="11.29" x="146.77" y="259.68" fill="#000" stroke="#000" stroke-linecap="butt" stroke-width=".2"/><rect width="11.29" height="11.29" x="146.77" y="270.97" fill="#000" stroke="#000" stroke-linecap="butt" stroke-width=".2"/><rect width="11.29" height="11.29" x="146.77" y="282.26" fill="#000" stroke="#000" stroke-linecap="butt" stroke-width=".2"/><rect width="11.29" height="11.29" x="146.77" y="304.84" fill="#000" stroke="#000" stroke-linecap="butt" stroke-width=".2"/><rect width="11.29" height="11.29" x="158.06" y="79.03" fill="#000" stroke="#000" stroke-linecap="butt" stroke-width=".2"/><rect width="11.29" height="11.29" x="158.06" y="124.19" fill="#000" stroke="#000" stroke-linecap="butt" stroke-width=".2"/><rect width="11.29" height="11.29" x="158.06" y="135.48" fill="#000" stroke="#000" stroke-linecap="butt" stroke-width=".2"/><rect width="11.29" height="11.29" x="158.06" y="169.35" fill="#000" stroke="#000" stroke-linecap="butt" stroke-width=".2"/><rect width="11.29" height="11.29" x="158.06" y="237.1" fill="#000" stroke="#000" stroke-linecap="butt" stroke-width=".2"/><rect width="11.29" height="11.29" x="158.06" y="248.39" fill="#000" stroke="#000" stroke-linecap="butt" stroke-width=".2"/><rect width="11.29" height="11.29" x="158.06" y="259.68" fill="#000" stroke="#000" stroke-linecap="butt" stroke-width=".2"/><rect width="11.29" height="11.29" x="169.35" y="33.87" fill="#000" stroke="#000" stroke-linecap="butt" stroke-width=".2"/><rect width="11.29" height="11.29" x="169.35" y="67.74" fill="#000" stroke="#000" stroke-linecap="butt" stroke-width=".2"/><rect width="11.29" height="11.29" x="169.35" y="79.03" fill="#000" stroke="#000" stroke-linecap="butt" stroke-width=".2"/><rect width="11.29" height="11.29" x="169.35" y="101.61" fill="#000" stroke="#000" stroke-linecap="butt" stroke-width=".2"/><rect width="11.29" height="11.29" x="169.35" y="112.9" fill="#000" stroke="#000" stroke-linecap="butt" stroke-width=".2"/><rect width="11.29" height="11.29" x="169.35" y="180.65" fill="#000" stroke="#000" stroke-linecap="butt" stroke-width=".2"/><rect width="11.29" height="11.29" x="169.35" y="203.23" fill="#000" stroke="#000" stroke-linecap="butt" stroke-width=".2"/><rect width="11.29" height="11.29" x="169.35" y="214.52" fill="#000" stroke="#000" stroke-linecap="butt" stroke-width=".2"/><rect width="11.29" height="11.29" x="169.35" y="237.1" fill="#000" stroke="#000" stroke-linecap="butt" stroke-width=".2"/><rect width="11.29" height="11.29" x="169.35" y="270.97" fill="#000" stroke="#000" stroke-linecap="butt" stroke-width=".2"/><rect width="11.29" height="11.29" x="169.35" y="293.55" fill="#000" stroke="#000" stroke-linecap="butt" stroke-width=".2"/><rect width="11.29" height="11.29" x="169.35" y="304.84" fill="#000" stroke="#000" stroke-linecap="butt" stroke-width=".2"/><rect width="11.29" height="11.29" x="180.65" y="45.16" fill="#000" stroke="#000" stroke-linecap="butt" stroke-width=".2"/><rect width="11.29" height="11.29" x="180.65" y="79.03" fill="#000" stroke="#000" stroke-linecap="butt" stroke-width=".2"/><rect width="11.29" height="11.29" x="180.65" y="90.32" fill="#000" stroke="#000" stroke-linecap="butt" stroke-width=".2"/><rect width="11.29" height="11.29" x="180.65" y="112.9" fill="#000" stroke="#000" stroke-linecap="butt" stroke-width=".2"/><rect width="11.29" height="11.29" x="180.65" y="180.65" fill="#000" stroke="#000" stroke-linecap="butt" stroke-width=".2"/><rect width="11.29" height="11.29" x="180.65" y="191.94" fill="#000" stroke="#000" stroke-linecap="butt" stroke-width=".2"/><rect width="11.29" height="11.29" x="180.65" y="203.23" fill="#000" stroke="#000" stroke-linecap="butt" stroke-width=".2"/><rect width="11.29" height="11.29" x="180.65" y="270.97" fill="#000" stroke="#000" stroke-linecap="butt" stroke-width=".2"/><rect width="11.29" height="11.29" x="180.65" y="282.26" fill="#000" stroke="#000" stroke-linecap="butt" stroke-width=".2"/><rect width="11.29" height="11.29" x="180.65" y="293.55" fill="#000" stroke="#000" stroke-linecap="butt" stroke-width=".2"/><rect width="11.29" height="11.29" x="191.94" y="45.16" fill="#000" stroke="#000" stroke-linecap="butt" stroke-width=".2"/><rect width="11.29" height="11.29" x="191.94" y="56.45" fill="#000" stroke="#000" stroke-linecap="butt" stroke-width=".2"/><rect width="11.29" height="11.29" x="191.94" y="90.32" fill="#000" stroke="#000" stroke-linecap="butt" stroke-width=".2"/><rect width="11.29" height="11.29" x="191.94" y="101.61" fill="#000" stroke="#000" stroke-linecap="butt" stroke-width=".2"/><rect width="11.29" height="11.29" x="191.94" y="124.19" fill="#000" stroke="#000" stroke-linecap="butt" stroke-width=".2"/><rect width="11.29" height="11.29" x="191.94" y="158.06" fill="#000" stroke="#000" stroke-linecap="butt" stroke-width=".2"/><rect width="11.29" height="11.29" x="191.94" y="180.65" fill="#000" stroke="#000" stroke-linecap="butt" stroke-width=".2"/><rect width="11.29" height="11.29" x="191.94" y="191.94" fill="#000" stroke="#000" stroke-linecap="butt" stroke-width=".2"/><rect width="11.29" height="11.29" x="191.94" y="214.52" fill="#000" stroke="#000" stroke-linecap="butt" stroke-width=".2"/><rect width="11.29" height="11.29" x="191.94" y="248.39" fill="#000" stroke="#000" stroke-linecap="butt" stroke-width=".2"/><rect width="11.29" height="11.29" x="191.94" y="270.97" fill="#000" stroke="#000" stroke-linecap="butt" stroke-width=".2"/><rect width="11.29" height="11.29" x="191.94" y="282.26" fill="#000" stroke="#000" stroke-linecap="butt" stroke-width=".2"/><rect width="11.29" height="11.29" x="191.94" y="304.84" fill="#000" stroke="#000" stroke-linecap="butt" stroke-width=".2"/><rect width="11.29" height="11.29" x="203.23" y="45.16" fill="#000" stroke="#000" stroke-linecap="butt" stroke-width=".2"/><rect width="11.29" height="11.29" x="203.23" y="67.74" fill="#000" stroke="#000" stroke-linecap="butt" stroke-width=".2"/><rect width="11.29" height="11.29" x="203.23" y="90.32" fill="#000" stroke="#000" stroke-linecap="butt" stroke-width=".2"/><rect width="11.29" height="11.29" x="203.23" y="146.77" fill="#000" stroke="#000" stroke-linecap="butt" stroke-width=".2"/><rect width="11.29" height="11.29" x="203.23" y="191.94" fill="#000" stroke="#000" stroke-linecap="butt" stroke-width=".2"/><rect width="11.29" height="11.29" x="203.23" y="214.52" fill="#000" stroke="#000" stroke-linecap="butt" stroke-width=".2"/><rect width="11.29" height="11.29" x="203.23" y="259.68" fill="#000" stroke="#000" stroke-linecap="butt" stroke-width=".2"/><rect width="11.29" height="11.29" x="203.23" y="293.55" fill="#000" stroke="#000" stroke-linecap="butt" stroke-width=".2"/><rect width="11.29" height="11.29" x="214.52" y="33.87" fill="#000" stroke="#000" stroke-linecap="butt" stroke-width=".2"/><rect width="11.29" height="11.29" x="214.52" y="67.74" fill="#000" stroke="#000" stroke-linecap="butt" stroke-width=".2"/><rect width="11.29" height="11.29" x="214.52" y="79.03" fill="#000" stroke="#000" stroke-linecap="butt" stroke-width=".2"/><rect width="11.29" height="11.29" x="214.52" y="90.32" fill="#000" stroke="#000" stroke-linecap="butt" stroke-width=".2"/><rect width="11.29" height="11.29" x="214.52" y="101.61" fill="#000" stroke="#000" stroke-linecap="butt" stroke-width=".2"/><rect width="11.29" height="11.29" x="214.52" y="112.9" fill="#000" stroke="#000" stroke-linecap="butt" stroke-width=".2"/><rect width="11.29" height="11.29" x="214.52" y="135.48" fill="#000" stroke="#000" stroke-linecap="butt" stroke-width=".2"/><rect width="11.29" height="11.29" x="214.52" y="158.06" fill="#000" stroke="#000" stroke-linecap="butt" stroke-width=".2"/><rect width="11.29" height="11.29" x="214.52" y="191.94" fill="#000" stroke="#000" stroke-linecap="butt" stroke-width=".2"/><rect width="11.29" height="11.29" x="214.52" y="214.52" fill="#000" stroke="#000" stroke-linecap="butt" stroke-width=".2"/><rect width="11.29" height="11.29" x="214.52" y="225.81" fill="#000" stroke="#000" stroke-linecap="butt" stroke-width=".2"/><rect width="11.29" height="11.29" x="214.52" y="237.1" fill="#000" stroke="#000" stroke-linecap="butt" stroke-width=".2"/><rect width="11.29" height="11.29" x="214.52" y="248.39" fill="#000" stroke="#000" stroke-linecap="butt" stroke-width=".2"/><rect width="11.29" height="11.29" x="214.52" y="259.68" fill="#000" stroke="#000" stroke-linecap="butt" stroke-width=".2"/><rect width="11.29" height="11.29" x="214.52" y="270.97" fill="#000" stroke="#000" stroke-linecap="butt" stroke-width=".2"/><rect width="11.29" height="11.29" x="214.52" y="293.55" fill="#000" stroke="#000" stroke-linecap="butt" stroke-width=".2"/><rect width="11.29" height="11.29" x="225.81" y="146.77" fill="#000" stroke="#000" stroke-linecap="butt" stroke-width=".2"/><rect width="11.29" height="11.29" x="225.81" y="158.06" fill="#000" stroke="#000" stroke-linecap="butt" stroke-width=".2"/><rect width="11.29" height="11.29" x="225.81" y="169.35" fill="#000" stroke="#000" stroke-linecap="butt" stroke-width=".2"/><rect width="11.29" height="11.29" x="225.81" y="180.65" fill="#000" stroke="#000" stroke-linecap="butt" stroke-width=".2"/><rect width="11.29" height="11.29" x="225.81" y="214.52" fill="#000" stroke="#000" stroke-linecap="butt" stroke-width=".2"/><rect width="11.29" height="11.29" x="225.81" y="259.68" fill="#000" stroke="#000" stroke-linecap="butt" stroke-width=".2"/><rect width="11.29" height="11.29" x="225.81" y="270.97" fill="#000" stroke="#000" stroke-linecap="butt" stroke-width=".2"/><rect width="11.29" height="11.29" x="225.81" y="304.84" fill="#000" stroke="#000" stroke-linecap="butt" stroke-width=".2"/><rect width="11.29" height="11.29" x="237.1" y="33.87" fill="#000" stroke="#000" stroke-linecap="butt" stroke-width=".2"/><rect width="11.29" height="11.29" x="237.1" y="45.16" fill="#000" stroke="#000" stroke-linecap="butt" stroke-width=".2"/><rect width="11.29" height="11.29" x="237.1" y="56.45" fill="#000" stroke="#000" stroke-linecap="butt" stroke-width=".2"/><rect width="11.29" height="11.29" x="237.1" y="67.74" fill="#000" stroke="#000" stroke-linecap="butt" stroke-width=".2"/><rect width="11.29" height="11.29" x="237.1" y="79.03" fill="#000" stroke="#000" stroke-linecap="butt" stroke-width=".2"/><rect width="11.29" height="11.29" x="237.1" y="90.32" fill="#000" stroke="#000" stroke-linecap="butt" stroke-width=".2"/><rect width="11.29" height="11.29" x="237.1" y="101.61" fill="#000" stroke="#000" stroke-linecap="butt" stroke-width=".2"/><rect width="11.29" height="11.29" x="237.1" y="124.19" fill="#000" stroke="#000" stroke-linecap="butt" stroke-width=".2"/><rect width="11.29" height="11.29" x="237.1" y="158.06" fill="#000" stroke="#000" stroke-linecap="butt" stroke-width=".2"/><rect width="11.29" height="11.29" x="237.1" y="169.35" fill="#000" stroke="#000" stroke-linecap="butt" stroke-width=".2"/><rect width="11.29" height="11.29" x="237.1" y="191.94" fill="#000" stroke="#000" stroke-linecap="butt" stroke-width=".2"/><rect width="11.29" height="11.29" x="237.1" y="203.23" fill="#000" stroke="#000" stroke-linecap="butt" stroke-width=".2"/><rect width="11.29" height="11.29" x="237.1" y="214.52" fill="#000" stroke="#000" stroke-linecap="butt" stroke-width=".2"/><rect width="11.29" height="11.29" x="237.1" y="237.1" fill="#000" stroke="#000" stroke-linecap="butt" stroke-width=".2"/><rect width="11.29" height="11.29" x="237.1" y="259.68" fill="#000" stroke="#000" stroke-linecap="butt" stroke-width=".2"/><rect width="11.29" height="11.29" x="237.1" y="270.97" fill="#000" stroke="#000" stroke-linecap="butt" stroke-width=".2"/><rect width="11.29" height="11.29" x="248.39" y="33.87" fill="#000" stroke="#000" stroke-linecap="butt" stroke-width=".2"/><rect width="11.29" height="11.29" x="248.39" y="101.61" fill="#000" stroke="#000" stroke-linecap="butt" stroke-width=".2"/><rect width="11.29" height="11.29" x="248.39" y="124.19" fill="#000" stroke="#000" stroke-linecap="butt" stroke-width=".2"/><rect width="11.29" height="11.29" x="248.39" y="169.35" fill="#000" stroke="#000" stroke-linecap="butt" stroke-width=".2"/><rect width="11.29" height="11.29" x="248.39" y="180.65" fill="#000" stroke="#000" stroke-linecap="butt" stroke-width=".2"/><rect width="11.29" height="11.29" x="248.39" y="191.94" fill="#000" stroke="#000" stroke-linecap="butt" stroke-width=".2"/><rect width="11.29" height="11.29" x="248.39" y="203.23" fill="#000" stroke="#000" stroke-linecap="butt" stroke-width=".2"/><rect width="11.29" height="11.29" x="248.39" y="214.52" fill="#000" stroke="#000" stroke-linecap="butt" stroke-width=".2"/><rect width="11.29" height="11.29" x="248.39" y="259.68" fill="#000" stroke="#000" stroke-linecap="butt" stroke-width=".2"/><rect width="11.29" height="11.29" x="248.39" y="293.55" fill="#000" stroke="#000" stroke-linecap="butt" stroke-width=".2"/><rect width="11.29" height="11.29" x="248.39" y="304.84" fill="#000" stroke="#000" stroke-linecap="butt" stroke-width=".2"/><rect width="11.29" height="11.29" x="259.68" y="33.87" fill="#000" stroke="#000" stroke-linecap="butt" stroke-width=".2"/><rect width="11.29" height="11.29" x="259.68" y="56.45" fill="#000" stroke="#000" stroke-linecap="butt" stroke-width=".2"/><rect width="11.29" height="11.29" x="259.68" y="67.74" fill="#000" stroke="#000" stroke-linecap="butt" stroke-width=".2"/><rect width="11.29" height="11.29" x="259.68" y="79.03" fill="#000" stroke="#000" stroke-linecap="butt" stroke-width=".2"/><rect width="11.29" height="11.29" x="259.68" y="101.61" fill="#000" stroke="#000" stroke-linecap="butt" stroke-width=".2"/><rect width="11.29" height="11.29" x="259.68" y="124.19" fill="#000" stroke="#000" stroke-linecap="butt" stroke-width=".2"/><rect width="11.29" height="11.29" x="259.68" y="146.77" fill="#000" stroke="#000" stroke-linecap="butt" stroke-width=".2"/><rect width="11.29" height="11.29" x="259.68" y="169.35" fill="#000" stroke="#000" stroke-linecap="butt" stroke-width=".2"/><rect width="11.29" height="11.29" x="259.68" y="191.94" fill="#000" stroke="#000" stroke-linecap="butt" stroke-width=".2"/><rect width="11.29" height="11.29" x="259.68" y="203.23" fill="#000" stroke="#000" stroke-linecap="butt" stroke-width=".2"/><rect width="11.29" height="11.29" x="259.68" y="214.52" fill="#000" stroke="#000" stroke-linecap="butt" stroke-width=".2"/><rect width="11.29" height="11.29" x="259.68" y="225.81" fill="#000" stroke="#000" stroke-linecap="butt" stroke-width=".2"/><rect width="11.29" height="11.29" x="259.68" y="237.1" fill="#000" stroke="#000" stroke-linecap="butt" stroke-width=".2"/><rect width="11.29" height="11.29" x="259.68" y="248.39" fill="#000" stroke="#000" stroke-linecap="butt" stroke-width=".2"/><rect width="11.29" height="11.29" x="259.68" y="259.68" fill="#000" stroke="#000" stroke-linecap="butt" stroke-width=".2"/><rect width="11.29" height="11.29" x="259.68" y="270.97" fill="#000" stroke="#000" stroke-linecap="butt" stroke-width=".2"/><rect width="11.29" height="11.29" x="259.68" y="293.55" fill="#000" stroke="#000" stroke-linecap="butt" stroke-width=".2"/><rect width="11.29" height="11.29" x="259.68" y="304.84" fill="#000" stroke="#000" stroke-linecap="butt" stroke-width=".2"/><rect width="11.29" height="11.29" x="270.97" y="33.87" fill="#000" stroke="#000" stroke-linecap="butt" stroke-width=".2"/><rect width="11.29" height="11.29" x="270.97" y="56.45" fill="#000" stroke="#000" stroke-linecap="butt" stroke-width=".2"/><rect width="11.29" height="11.29" x="270.97" y="67.74" fill="#000" stroke="#000" stroke-linecap="butt" stroke-width=".2"/><rect width="11.29" height="11.29" x="270.97" y="79.03" fill="#000" stroke="#000" stroke-linecap="butt" stroke-width=".2"/><rect width="11.29" height="11.29" x="270.97" y="101.61" fill="#000" stroke="#000" stroke-linecap="butt" stroke-width=".2"/><rect width="11.29" height="11.29" x="270.97" y="124.19" fill="#000" stroke="#000" stroke-linecap="butt" stroke-width=".2"/><rect width="11.29" height="11.29" x="270.97" y="146.77" fill="#000" stroke="#000" stroke-linecap="butt" stroke-width=".2"/><rect width="11.29" height="11.29" x="270.97" y="180.65" fill="#000" stroke="#000" stroke-linecap="butt" stroke-width=".2"/><rect width="11.29" height="11.29" x="270.97" y="191.94" fill="#000" stroke="#000" stroke-linecap="butt" stroke-width=".2"/><rect width="11.29" height="11.29" x="270.97" y="225.81" fill="#000" stroke="#000" stroke-linecap="butt" stroke-width=".2"/><rect width="11.29" height="11.29" x="270.97" y="248.39" fill="#000" stroke="#000" stroke-linecap="butt" stroke-width=".2"/><rect width="11.29" height="11.29" x="270.97" y="270.97" fill="#000" stroke="#000" stroke-linecap="butt" stroke-width=".2"/><rect width="11.29" height="11.29" x="270.97" y="282.26" fill="#000" stroke="#000" stroke-linecap="butt" stroke-width=".2"/><rect width="11.29" height="11.29" x="270.97" y="293.55" fill="#000" stroke="#000" stroke-linecap="butt" stroke-width=".2"/><rect width="11.29" height="11.29" x="270.97" y="304.84" fill="#000" stroke="#000" stroke-linecap="butt" stroke-width=".2"/><rect width="11.29" height="11.29" x="282.26" y="33.87" fill="#000" stroke="#000" stroke-linecap="butt" stroke-width=".2"/><rect width="11.29" height="11.29" x="282.26" y="56.45" fill="#000" stroke="#000" stroke-linecap="butt" stroke-width=".2"/><rect width="11.29" height="11.29" x="282.26" y="67.74" fill="#000" stroke="#000" stroke-linecap="butt" stroke-width=".2"/><rect width="11.29" height="11.29" x="282.26" y="79.03" fill="#000" stroke="#000" stroke-linecap="butt" stroke-width=".2"/><rect width="11.29" height="11.29" x="282.26" y="101.61" fill="#000" stroke="#000" stroke-linecap="butt" stroke-width=".2"/><rect width="11.29" height="11.29" x="282.26" y="124.19" fill="#000" stroke="#000" stroke-linecap="butt" stroke-width=".2"/><rect width="11.29" height="11.29" x="282.26" y="169.35" fill="#000" stroke="#000" stroke-linecap="butt" stroke-width=".2"/><rect width="11.29" height="11.29" x="282.26" y="214.52" fill="#000" stroke="#000" stroke-linecap="butt" stroke-width=".2"/><rect width="11.29" height="11.29" x="282.26" y="237.1" fill="#000" stroke="#000" stroke-linecap="butt" stroke-width=".2"/><rect width="11.29" height="11.29" x="282.26" y="259.68" fill="#000" stroke="#000" stroke-linecap="butt" stroke-width=".2"/><rect width="11.29" height="11.29" x="282.26" y="270.97" fill="#000" stroke="#000" stroke-linecap="butt" stroke-width=".2"/><rect width="11.29" height="11.29" x="282.26" y="282.26" fill="#000" stroke="#000" stroke-linecap="butt" stroke-width=".2"/><rect width="11.29" height="11.29" x="282.26" y="304.84" fill="#000" stroke="#000" stroke-linecap="butt" stroke-width=".2"/><rect width="11.29" height="11.29" x="293.55" y="33.87" fill="#000" stroke="#000" stroke-linecap="butt" stroke-width=".2"/><rect width="11.29" height="11.29" x="293.55" y="101.61" fill="#000" stroke="#000" stroke-linecap="butt" stroke-width=".2"/><rect width="11.29" height="11.29" x="293.55" y="135.48" fill="#000" stroke="#000" stroke-linecap="butt" stroke-width=".2"/><rect width="11.29" height="11.29" x="293.55" y="146.77" fill="#000" stroke="#000" stroke-linecap="butt" stroke-width=".2"/><rect width="11.29" height="11.29" x="293.55" y="169.35" fill="#000" stroke="#000" stroke-linecap="butt" stroke-width=".2"/><rect width="11.29" height="11.29" x="293.55" y="180.65" fill="#000" stroke="#000" stroke-linecap="butt" stroke-width=".2"/><rect width="11.29" height="11.29" x="293.55" y="191.94" fill="#000" stroke="#000" stroke-linecap="butt" stroke-width=".2"/><rect width="11.29" height="11.29" x="293.55" y="237.1" fill="#000" stroke="#000" stroke-linecap="butt" stroke-width=".2"/><rect width="11.29" height="11.29" x="293.55" y="270.97" fill="#000" stroke="#000" stroke-linecap="butt" stroke-width=".2"/><rect width="11.29" height="11.29" x="293.55" y="304.84" fill="#000" stroke="#000" stroke-linecap="butt" stroke-width=".2"/><rect width="11.29" height="11.29" x="304.84" y="33.87" fill="#000" stroke="#000" stroke-linecap="butt" stroke-width=".2"/><rect width="11.29" height="11.29" x="304.84" y="45.16" fill="#000" stroke="#000" stroke-linecap="butt" stroke-width=".2"/><rect width="11.29" height="11.29" x="304.84" y="56.45" fill="#000" stroke="#000" stroke-linecap="butt" stroke-width=".2"/><rect width="11.29" height="11.29" x="304.84" y="67.74" fill="#000" stroke="#000" stroke-linecap="butt" stroke-width=".2"/><rect width="11.29" height="11.29" x="304.84" y="79.03" fill="#000" stroke="#000" stroke-linecap="butt" stroke-width=".2"/><rect width="11.29" height="11.29" x="304.84" y="90.32" fill="#000" stroke="#000" stroke-linecap="butt" stroke-width=".2"/><rect width="11.29" height="11.29" x="304.84" y="101.61" fill="#000" stroke="#000" stroke-linecap="butt" stroke-width=".2"/><rect width="11.29" height="11.29" x="304.84" y="146.77" fill="#000" stroke="#000" stroke-linecap="butt" stroke-width=".2"/><rect width="11.29" height="11.29" x="304.84" y="158.06" fill="#000" stroke="#000" stroke-linecap="butt" stroke-width=".2"/><rect width="11.29" height="11.29" x="304.84" y="169.35" fill="#000" stroke="#000" stroke-linecap="butt" stroke-width=".2"/><rect width="11.29" height="11.29" x="304.84" y="191.94" fill="#000" stroke="#000" stroke-linecap="butt" stroke-width=".2"/><rect width="11.29" height="11.29" x="304.84" y="203.23" fill="#000" stroke="#000" stroke-linecap="butt" stroke-width=".2"/><rect width="11.29" height="11.29" x="304.84" y="237.1" fill="#000" stroke="#000" stroke-linecap="butt" stroke-width=".2"/><rect width="11.29" height="11.29" x="304.84" y="259.68" fill="#000" stroke="#000" stroke-linecap="butt" stroke-width=".2"/><rect width="11.29" height="11.29" x="304.84" y="270.97" fill="#000" stroke="#000" stroke-linecap="butt" stroke-width=".2"/><rect width="11.29" height="11.29" x="304.84" y="282.26" fill="#000" stroke="#000" stroke-linecap="butt" stroke-width=".2"/><rect width="11.29" height="11.29" x="304.84" y="293.55" fill="#000" stroke="#000" stroke-linecap="butt" stroke-width=".2"/><rect width="11.29" height="11.29" x="304.84" y="304.84" fill="#000" stroke="#000" stroke-linecap="butt" stroke-width=".2"/></g></svg>